<svg width="228" height="157" viewBox="0 0 228 157" fill="none" xmlns="http://www.w3.org/2000/svg">
<path d="M112.579 7.90556L125.046 50.3276L163.112 20.9216L144.087 61.6796L194.895 56.9803L151.646 80.5062L195.789 102.309L144.835 99.6162L165.452 139.592L126.256 111.71L115.472 154.591L103.005 112.169L64.9395 141.575L83.9641 100.817L33.1563 105.516L76.4051 81.9901L32.2623 60.1878L83.2159 62.8801L62.5991 22.9039L101.795 50.7861L112.579 7.90556Z" fill="black"/>
<path d="M120.589 44.6812L120.899 45.7319L121.766 45.0633L157.795 17.3006L139.874 55.595L139.319 56.78L140.622 56.6596L188.337 52.255L147.835 74.2327L146.56 74.924L147.861 75.5644L189.199 95.9271L141.347 93.4083L140.04 93.3393L140.641 94.5015L160.059 132.059L122.963 105.739L122.07 105.105L121.801 106.167L111.57 146.735L99.7481 106.602L99.4392 105.551L98.5714 106.22L62.5414 133.981L80.4627 95.6883L81.0176 94.5033L79.715 94.6238L31.9986 99.0274L72.5029 77.0506L73.7766 76.3594L72.4766 75.7189L31.1373 55.3552L78.9903 57.8751L80.2966 57.944L79.6954 56.7818L60.2782 19.2248L97.3747 45.5443L98.2683 46.1782L98.5355 45.1161L108.766 4.54613L120.589 44.6812Z" fill="#FDD100" stroke="black" stroke-width="1.5"/>
<path d="M118.433 51.6359L118.567 52.0903L118.943 51.8016L147.645 29.7001L133.337 60.2509L133.097 60.7645L133.661 60.7124L171.806 57.1939L139.385 74.7741L138.833 75.0741L139.396 75.3512L172.486 91.6384L134.232 89.6276L133.665 89.5978L133.925 90.1015L149.427 120.063L119.876 99.1118L119.489 98.8381L119.372 99.2975L111.23 131.559L101.821 99.6437L101.687 99.1892L101.312 99.4779L72.6084 121.578L86.918 91.0286L87.1579 90.515L86.5934 90.5672L48.4473 94.0847L80.8697 76.5054L81.4215 76.2064L80.8583 75.9284L47.768 59.6402L86.0231 61.6519L86.5893 61.6817L86.3293 61.178L70.8263 31.2151L100.379 52.1677L100.765 52.4414L100.881 51.982L109.024 19.7195L118.433 51.6359Z" fill="#E2242B" stroke="black" stroke-width="0.650088"/>
<path d="M56.4687 78.9487C57.0229 81.556 57.1439 83.9464 56.8317 86.1198C56.5196 88.2933 55.8722 90.271 54.8896 92.0532C53.9326 93.8299 52.6971 95.427 51.1832 96.8444C49.6693 98.2619 47.9877 99.5183 46.1384 100.614C44.3089 101.677 42.3686 102.595 40.3173 103.368C38.2603 104.114 36.2131 104.718 34.1756 105.179L38.1693 123.968L20.3167 127.763C19.0083 121.608 17.7184 115.476 16.447 109.369C15.1756 103.262 13.9055 97.0983 12.6368 90.8782C11.9908 87.588 11.3066 84.306 10.584 81.0321C9.86139 77.7582 9.22248 74.4384 8.66725 71.0727C11.7193 69.3564 14.8256 67.8955 17.9862 66.6899C21.1467 65.4843 24.4638 64.5123 27.9372 63.774C29.9038 63.356 31.9075 63.1127 33.9484 63.0441C35.9836 62.9487 37.9722 63.0738 39.9142 63.4196C41.8819 63.7599 43.749 64.3182 45.5157 65.0946C47.3021 65.8386 48.9172 66.8438 50.361 68.1102C51.8047 69.3766 53.0515 70.9096 54.1014 72.7093C55.1711 74.4766 55.9602 76.5564 56.4687 78.9487ZM39.7503 83.9351C39.3789 82.1879 38.5796 80.9391 37.3523 80.1885C36.1448 79.4057 34.7366 79.1853 33.1276 79.5273C32.5912 79.6413 32.0408 79.8145 31.4762 80.0469C30.9315 80.247 30.418 80.4685 29.9357 80.7114L31.9785 92.5825C32.3475 92.5603 32.698 92.5139 33.03 92.4433C33.3621 92.3727 33.7068 92.2994 34.0644 92.2234C34.9839 92.028 35.8307 91.6794 36.605 91.1777C37.4048 90.6706 38.0738 90.0508 38.6122 89.3183C39.1448 88.5589 39.517 87.7353 39.7287 86.8475C39.9602 85.9273 39.9674 84.9565 39.7503 83.9351Z" fill="#0D83A1"/>
<path d="M47.2041 77.768C47.7105 80.1504 47.8333 82.332 47.5726 84.3128C47.3118 86.2935 46.754 88.0935 45.8992 89.7128C45.0668 91.3273 43.9877 92.7761 42.6617 94.0591C41.3358 95.3421 39.8608 96.4771 38.2368 97.464C36.6301 98.4217 34.9246 99.2463 33.1202 99.9378C31.3107 100.605 29.5088 101.142 27.7145 101.549L31.3638 118.717L15.6407 122.059C14.4451 116.435 13.2661 110.832 12.1035 105.252C10.9409 99.672 9.77908 94.0403 8.61809 88.3571C8.02616 85.351 7.40048 82.3522 6.74107 79.3605C6.08165 76.3688 5.49574 73.3358 4.98334 70.2615C7.66415 68.7162 10.3946 67.4042 13.1745 66.3255C15.9545 65.2469 18.8741 64.3824 21.9333 63.7322C23.6653 63.364 25.4312 63.1555 27.2311 63.1067C29.0258 63.0332 30.7808 63.1608 32.4964 63.4892C34.2344 63.8129 35.8852 64.3349 37.4489 65.055C39.0298 65.7458 40.4613 66.6737 41.7434 67.8388C43.0255 69.0039 44.1356 70.4108 45.0739 72.0597C46.0294 73.6793 46.7395 75.582 47.2041 77.768ZM32.4896 82.2049C32.1502 80.6084 31.4367 79.4637 30.349 78.7707C29.2786 78.0484 28.0348 77.8378 26.6177 78.1391C26.1454 78.2395 25.6609 78.3938 25.1645 78.602C24.6853 78.7809 24.2338 78.9795 23.81 79.1979L25.6918 90.0419C26.0171 90.0241 26.326 89.9841 26.6184 89.9219C26.9109 89.8598 27.2145 89.7952 27.5294 89.7283C28.3392 89.5562 29.0839 89.2438 29.7636 88.7913C30.4657 88.334 31.0517 87.773 31.5217 87.1084C31.9865 86.4192 32.3093 85.6703 32.49 84.8617C32.6881 84.0238 32.6879 83.1382 32.4896 82.2049Z" fill="#FDD100"/>
<path d="M47.2022 77.7661C46.7376 75.5802 46.0275 73.6774 45.072 72.0579C44.1337 70.409 43.0236 69.002 41.7415 67.8369C40.4594 66.6719 39.0279 65.7439 37.447 65.0531C35.8833 64.333 34.2325 63.8111 32.4945 63.4874C30.779 63.1589 29.0239 63.0314 27.2292 63.1048C25.4293 63.1537 23.6634 63.3622 21.9314 63.7303C18.8722 64.3806 15.9527 65.245 13.1727 66.3237C10.3927 67.4023 7.66225 68.7143 4.98145 70.2596C5.49385 73.3339 6.07976 76.3669 6.73917 79.3586C7.39859 82.3503 8.02426 85.3492 8.6162 88.3552C9.77719 94.0385 10.939 99.6702 12.1016 105.25C13.2642 110.831 14.4432 116.433 15.6388 122.058L31.3619 118.715L27.7126 101.547C29.5069 101.14 31.3088 100.603 33.1183 99.936C34.9227 99.2444 36.6282 98.4198 38.2349 97.4622C39.8589 96.4752 41.3339 95.3402 42.6598 94.0572C43.9858 92.7742 45.0649 91.3255 45.8973 89.711C46.7521 88.0917 47.3099 86.2917 47.5707 84.3109C47.8314 82.3302 47.7086 80.1486 47.2022 77.7661ZM30.1843 82.6926C29.9623 81.6481 29.584 81.208 29.2036 80.9657L29.1764 80.9484L29.1496 80.9305C28.6901 80.6204 28.0861 80.4534 27.1504 80.6523C26.9401 80.697 26.7179 80.7589 26.4835 80.8405L27.5613 87.0505C27.8861 86.9344 28.1886 86.7821 28.4722 86.5932L28.4815 86.5869L28.491 86.5808C28.956 86.2779 29.3203 85.9253 29.6064 85.5271C29.8943 85.095 30.0829 84.6473 30.1889 84.1731L30.1923 84.1572L30.1962 84.1413C30.2934 83.7301 30.3051 83.2611 30.1843 82.6926ZM32.4877 82.203C32.686 83.1363 32.6862 84.022 32.4881 84.8599C32.3074 85.6684 31.9846 86.4173 31.5198 87.1065C31.0499 87.7712 30.4638 88.3322 29.7617 88.7895C29.082 89.242 28.3373 89.5543 27.5275 89.7264L26.6165 89.9201C26.3241 89.9822 26.0152 90.0222 25.6899 90.04L23.8081 79.1961C24.2319 78.9777 24.6834 78.779 25.1626 78.6001C25.659 78.3919 26.1435 78.2376 26.6158 78.1372C28.0329 77.836 29.2767 78.0465 30.3471 78.7688C31.4348 79.4618 32.1483 80.6065 32.4877 82.203ZM49.5055 77.2765C50.0646 79.9069 50.221 82.4126 49.9118 84.7613C49.6126 87.0344 48.9665 89.1363 47.9602 91.0425L47.96 91.0423C47.0021 92.8946 45.7673 94.5462 44.2696 95.9954C42.8167 97.4013 41.2071 98.638 39.4469 99.7078L39.4388 99.7128L39.4307 99.7176C37.7119 100.742 35.8932 101.621 33.977 102.355L33.9508 102.365C32.8102 102.785 31.6701 103.157 30.5308 103.48L34.1998 120.741L13.87 125.062L13.3354 122.547C12.1391 116.919 10.9593 111.313 9.79588 105.729C8.63252 100.145 7.4699 94.5097 6.3082 88.823L6.30639 88.8133L6.3043 88.8035C5.71644 85.8182 5.09508 82.8399 4.44021 79.8688C3.77018 76.829 3.17518 73.7483 2.65495 70.6271L2.3552 68.8286L3.81347 67.9878C6.58797 66.3884 9.41877 65.0278 12.3055 63.9077C15.199 62.7851 18.2302 61.8883 21.3968 61.2152C23.2495 60.8214 25.1363 60.5982 27.0557 60.5443L27.4222 60.5319C29.2523 60.4825 31.054 60.6256 32.8246 60.9646L32.8244 60.9649C34.7346 61.3216 36.5635 61.8982 38.305 62.7003L38.3048 62.7003C40.1039 63.4918 41.7472 64.5576 43.2224 65.8982C44.7128 67.2526 45.9873 68.8718 47.0512 70.7333L47.1561 70.9138C48.2326 72.7886 49.0052 74.9225 49.5055 77.2765Z" fill="black"/>
<path d="M83.8078 73.9422L79.1323 100.216C79.1323 100.216 75.9144 122.219 62.7504 125.434C49.5864 128.649 42.6266 108.151 52.8516 112.537C63.0766 116.923 66.0142 101.355 66.0142 101.355L47.0219 82.9261L60.1753 77.6204C60.1753 77.6204 68.302 87.5062 69.5203 87.283C70.7387 87.0597 71.2743 76.0375 71.2743 76.0375L83.8078 73.9422Z" fill="#0D83A1"/>
<path d="M67.2585 73.0083L79.0407 71.0321L80.4896 70.789L80.184 72.2257L74.6237 98.396C74.6223 98.406 74.6203 98.418 74.6184 98.4321C74.6123 98.4755 74.6036 98.539 74.5915 98.6205C74.5673 98.7836 74.5307 99.0207 74.4799 99.3212C74.3783 99.9222 74.2199 100.779 73.9933 101.809C73.5407 103.865 72.8108 106.63 71.7015 109.439C70.5955 112.241 69.0923 115.138 67.0706 117.422C65.0406 119.716 62.4447 121.435 59.184 121.746C55.968 122.053 52.7521 120.338 50.4653 118.717C49.2972 117.89 48.3165 117.047 47.6282 116.412C47.2833 116.094 47.0097 115.826 46.8213 115.636C46.727 115.541 46.6536 115.466 46.6031 115.413C46.578 115.387 46.5588 115.366 46.5451 115.351C46.5382 115.344 46.5323 115.338 46.5284 115.334C46.5266 115.332 46.5255 115.33 46.5243 115.329L46.522 115.327L46.5218 115.326L45.7811 114.528L46.6401 113.859L53.1592 108.77L53.7269 108.327L54.3264 108.724C56.2583 110.002 57.4167 109.882 58.1571 109.442C59.0222 108.928 59.7232 107.761 60.2383 106.171C60.739 104.626 60.998 102.888 61.1301 101.513C61.1957 100.831 61.2295 100.248 61.2463 99.8378C61.2498 99.7542 61.2504 99.6773 61.2526 99.6088L43.2921 81.7197L42.122 80.5547L43.6967 80.0582L54.3304 76.6997L55.0359 76.4769L55.455 77.0867L55.4562 77.0874C55.4568 77.0883 55.4578 77.0899 55.4591 77.0918C55.4618 77.0957 55.4664 77.102 55.4719 77.11C55.4833 77.1264 55.5 77.1517 55.5226 77.1841C55.5683 77.2494 55.637 77.3455 55.7249 77.4686C55.9008 77.7151 56.1556 78.0681 56.4711 78.4901C57.1036 79.3359 57.9729 80.4532 58.9263 81.5484C59.8856 82.6505 60.9027 83.6979 61.8305 84.4274C62.295 84.7926 62.7059 85.0534 63.0502 85.2055C63.4046 85.362 63.5972 85.3636 63.6736 85.3485C63.7055 85.3422 63.8412 85.297 64.0571 85.0204C64.2688 84.7492 64.4891 84.3403 64.7051 83.7944C65.136 82.7054 65.4779 81.2595 65.7388 79.7759C65.9978 78.3034 66.1693 76.8419 66.2768 75.7449C66.3304 75.1976 66.3681 74.743 66.3919 74.4265C66.4038 74.2683 66.4124 74.1441 66.4179 74.0606C66.4207 74.019 66.4226 73.9873 66.4239 73.9664C66.4245 73.956 66.4247 73.9483 66.425 73.9433C66.4251 73.941 66.4258 73.9392 66.4258 73.9381L66.4254 73.9362L66.472 73.1405L67.2585 73.0083Z" fill="#FDD100" stroke="black" stroke-width="2"/>
<path d="M110.673 51.4252L111.998 68.1078C111.22 68.0586 110.457 68.0736 109.707 68.1526C108.957 68.2316 108.215 68.3491 107.481 68.505C105.609 68.9029 103.88 69.5384 102.294 70.4115C100.703 71.259 99.3585 72.3354 98.261 73.6406C97.1888 74.9405 96.4242 76.4431 95.9669 78.1482C95.535 79.848 95.5398 81.7364 95.9813 83.8134C96.2647 85.1467 96.7123 86.2575 97.3242 87.1459C97.9614 88.0288 98.7275 88.7102 99.6227 89.1899C100.518 89.6696 101.517 89.9531 102.619 90.0403C103.722 90.1276 104.893 90.0394 106.133 89.7759C107.069 89.577 108.021 89.2674 108.989 88.8472C109.958 88.427 110.9 87.9453 111.815 87.4023C112.731 86.8592 113.611 86.2703 114.454 85.6354C115.297 85.0006 116.062 84.369 116.748 83.7408L119.073 102.141C118.195 102.863 117.218 103.553 116.142 104.211C115.085 104.837 113.982 105.434 112.833 105.999C111.679 106.54 110.511 107.016 109.329 107.428C108.148 107.84 107.001 108.164 105.887 108.4C102.675 109.083 99.5487 109.118 96.5098 108.504C93.4709 107.891 90.7034 106.75 88.2074 105.083C85.7113 103.416 83.5663 101.286 81.7723 98.6925C79.9982 96.068 78.7596 93.1019 78.0565 89.7942C77.1245 85.4095 76.8668 81.1495 77.2835 77.0141C77.6946 72.8532 78.7912 69.0557 80.5731 65.6218C82.3551 62.1878 84.8371 59.2483 88.019 56.8031C91.2263 54.3526 95.1447 52.6353 99.7742 51.6513C101.52 51.2803 103.333 51.0422 105.215 50.9371C107.121 50.8266 108.941 50.9893 110.673 51.4252Z" fill="#0D83A1"/>
<path d="M107.856 47.0985L109.142 62.7473C108.428 62.698 107.726 62.7088 107.037 62.7798C106.348 62.8508 105.666 62.9579 104.992 63.1012C103.273 63.4666 101.687 64.0554 100.232 64.8676C98.7729 65.6557 97.5415 66.6594 96.5381 67.8789C95.5579 69.0934 94.8611 70.4992 94.4479 72.0962C94.0578 73.6883 94.07 75.4591 94.4843 77.4085C94.7504 78.6599 95.1664 79.7034 95.7325 80.5389C96.3218 81.3695 97.0289 82.0115 97.8538 82.465C98.6786 82.9185 99.598 83.1885 100.612 83.2748C101.626 83.3611 102.702 83.2833 103.84 83.0413C104.7 82.8586 105.574 82.5722 106.462 82.1822C107.351 81.7921 108.215 81.3444 109.054 80.8389C109.894 80.3335 110.7 79.7848 111.472 79.193C112.245 78.6012 112.945 78.0121 113.573 77.4258L115.786 94.6889C114.982 95.3628 114.087 96.0059 113.1 96.6181C112.131 97.2013 111.12 97.7558 110.066 98.2816C109.007 98.7834 107.936 99.225 106.851 99.6064C105.767 99.9878 104.714 100.287 103.691 100.504C100.741 101.132 97.8677 101.151 95.0718 100.563C92.2758 99.9754 89.7272 98.8947 87.426 97.3212C85.1247 95.7478 83.1442 93.7414 81.4845 91.3021C79.8429 88.8339 78.6921 86.0475 78.0322 82.9429C77.1575 78.8276 76.9031 74.8319 77.269 70.9559C77.6299 67.0559 78.6222 63.4995 80.2461 60.2868C81.87 57.0741 84.1393 54.3279 87.0542 52.0482C89.9923 49.7636 93.5871 48.1694 97.8385 47.2657C99.4416 46.925 101.108 46.7092 102.837 46.6184C104.589 46.5227 106.262 46.6827 107.856 47.0985Z" fill="#FDD100"/>
<path d="M94.4809 77.4102C94.0665 75.4608 94.0544 73.69 94.4444 72.0979C94.8577 70.5008 95.5544 69.0951 96.5346 67.8806C97.5381 66.6611 98.7695 65.6574 100.229 64.8692C101.683 64.0571 103.27 63.4683 104.989 63.1028C105.663 62.9596 106.344 62.8525 107.033 62.7815C107.722 62.7105 108.424 62.6997 109.139 62.749L107.852 47.1002C106.258 46.6844 104.585 46.5244 102.833 46.6201C101.104 46.7109 99.4381 46.9267 97.8351 47.2674C93.5836 48.1711 89.9888 49.7653 87.0507 52.0499C84.1359 54.3296 81.8665 57.0758 80.2426 60.2885C78.6187 63.5012 77.6264 67.0576 77.2656 70.9576C76.8996 74.8336 77.154 78.8293 78.0288 82.9446C78.6887 86.0492 79.8394 88.8356 81.481 91.3038C83.1407 93.7431 85.1212 95.7495 87.4225 97.3229C89.7238 98.8964 92.2724 99.9771 95.0683 100.565C97.8643 101.153 100.737 101.133 103.688 100.506C104.71 100.289 105.763 99.9895 106.848 99.6081C107.932 99.2267 109.004 98.7851 110.063 98.2833C111.117 97.7575 112.128 97.203 113.097 96.6198C114.083 96.0076 114.979 95.3645 115.782 94.6906L113.57 77.4275C112.942 78.0138 112.241 78.6029 111.469 79.1947C110.696 79.7865 109.89 80.3352 109.051 80.8406C108.211 81.3461 107.347 81.7938 106.459 82.1839C105.57 82.5739 104.696 82.8603 103.837 83.043L103.313 80.5786C104.001 80.4324 104.722 80.1986 105.479 79.8665C106.274 79.5174 107.048 79.1161 107.801 78.6625C108.566 78.2023 109.298 77.7037 110 77.1664C110.719 76.6157 111.358 76.0768 111.922 75.5504L115.37 72.3327L118.375 95.7801L117.334 96.6527C116.434 97.4072 115.446 98.1159 114.373 98.7813L114.359 98.7895L114.346 98.7979C113.321 99.4147 112.255 99.9989 111.148 100.551L111.127 100.562L111.105 100.572C109.973 101.109 108.826 101.582 107.663 101.991C106.492 102.402 105.342 102.73 104.212 102.971C100.96 103.662 97.7542 103.69 94.6154 103.03C91.5211 102.379 88.6745 101.176 86.0982 99.4145C83.5263 97.656 81.3244 95.4199 79.4945 92.7305L79.487 92.7192L79.4795 92.7078C77.6454 89.95 76.3734 86.8547 75.6498 83.4503C74.7244 79.0965 74.4486 74.8353 74.8411 70.6779C75.2296 66.4842 76.3024 62.6156 78.0796 59.0995C79.8739 55.5497 82.3789 52.5264 85.5624 50.0366L85.5678 50.0324C88.8345 47.4922 92.7719 45.7679 97.3113 44.803C99.041 44.4354 100.83 44.2044 102.675 44.1075L102.674 44.1078C104.652 44.0002 106.57 44.1797 108.417 44.6616L110.13 45.1086L111.803 65.4517L109.011 65.2591C108.427 65.2187 107.86 65.2282 107.309 65.285C106.703 65.3475 106.104 65.4415 105.513 65.5672C104.011 65.8865 102.647 66.3956 101.411 67.086L101.396 67.0942L101.382 67.1023C100.183 67.7497 99.2016 68.5551 98.4106 69.513C97.6682 70.4345 97.1306 71.5063 96.8035 72.7598C96.526 73.9018 96.5114 75.2651 96.8598 76.9045C97.0708 77.8972 97.3739 78.6028 97.7055 79.0987C98.0839 79.6248 98.5049 79.9936 98.9707 80.2497C99.472 80.5254 100.062 80.7086 100.774 80.7692C101.526 80.8332 102.368 80.7795 103.313 80.5786L103.837 83.043C102.698 83.285 101.622 83.3628 100.608 83.2765C99.5945 83.1902 98.6751 82.9202 97.8503 82.4667C97.0255 82.0132 96.3184 81.3712 95.729 80.5406C95.1629 79.7051 94.7469 78.6616 94.4809 77.4102Z" fill="black"/>
<path d="M151.706 74.6179C152.089 76.4165 152.284 78.1929 152.293 79.9469C152.298 81.6812 152.124 83.3501 151.772 84.9537C151.437 86.5538 150.927 88.067 150.242 89.4933C149.57 90.8963 148.738 92.1577 147.746 93.2775C146.77 94.3939 145.647 95.3453 144.376 96.1319C143.101 96.8987 141.693 97.446 140.151 97.7737C138.659 98.0908 137.185 98.1665 135.729 98.0009C134.29 97.8317 132.896 97.467 131.546 96.9068C130.193 96.3268 128.914 95.5658 127.709 94.6238C126.516 93.6585 125.43 92.5464 124.453 91.2875C123.487 90.0053 122.641 88.5944 121.915 87.0547C121.206 85.5114 120.665 83.8602 120.291 82.1011C119.925 80.3815 119.742 78.6645 119.742 76.9499C119.737 75.2156 119.902 73.5485 120.238 71.9484C120.59 70.3448 121.1 68.8317 121.768 67.4089C122.436 65.9861 123.247 64.7084 124.202 63.5759C125.173 62.4398 126.278 61.482 127.515 60.7024C128.753 59.9229 130.118 59.3745 131.61 59.0574C134.014 58.5465 136.296 58.5261 138.458 58.9962C140.636 59.4629 142.598 60.3783 144.344 61.7426C146.101 63.0837 147.611 64.8492 148.874 67.0392C150.149 69.2059 151.093 71.7321 151.706 74.6179ZM140.83 77.7354C140.649 76.8855 140.367 76.0881 139.984 75.3433C139.612 74.5752 139.163 73.9271 138.635 73.3989C138.102 72.851 137.498 72.4527 136.821 72.204C136.157 71.932 135.444 71.8771 134.681 72.0391C133.902 72.2048 133.241 72.5208 132.7 72.9871C132.158 73.4535 131.726 74.0308 131.404 74.7189C131.095 75.3837 130.909 76.136 130.845 76.976C130.776 77.7962 130.835 78.6411 131.019 79.5108C131.196 80.3409 131.472 81.1499 131.847 81.9378C132.223 82.7257 132.681 83.4133 133.221 84.0008C133.762 84.5882 134.367 85.0278 135.035 85.3196C135.72 85.6078 136.452 85.6691 137.231 85.5035C138.01 85.3379 138.669 85.012 139.206 84.5259C139.757 84.0164 140.182 83.4096 140.483 82.7052C140.779 81.9811 140.958 81.1892 141.017 80.3295C141.077 79.4698 141.015 78.6051 140.83 77.7354Z" fill="#0D83A1"/>
<path d="M145.613 73.0285C145.98 74.7547 146.168 76.4595 146.177 78.1429C146.181 79.8073 146.015 81.409 145.677 82.948C145.355 84.4835 144.866 85.9357 144.209 87.3045C143.565 88.6509 142.767 89.8615 141.815 90.9361C140.879 92.0074 139.801 92.9205 138.582 93.6753C137.359 94.4111 136.008 94.9363 134.529 95.2506C133.097 95.5549 131.683 95.6275 130.286 95.4684C128.905 95.3059 127.568 94.9558 126.273 94.4181C124.975 93.8614 123.747 93.1309 122.591 92.2268C121.446 91.3003 120.405 90.2329 119.467 89.0247C118.54 87.7941 117.729 86.44 117.032 84.9623C116.352 83.4811 115.832 81.8964 115.473 80.2082C115.123 78.5578 114.947 76.91 114.946 75.2645C114.941 73.6001 115.1 72.0001 115.422 70.4645C115.76 68.9256 116.249 67.4734 116.89 66.108C117.53 64.7426 118.308 63.5165 119.224 62.4296C120.156 61.3393 121.216 60.4202 122.403 59.6721C123.591 58.9241 124.9 58.3979 126.331 58.0937C128.638 57.6035 130.828 57.5841 132.902 58.0354C134.992 58.4834 136.874 59.3621 138.548 60.6716C140.235 61.9587 141.684 63.6531 142.895 65.755C144.119 67.8345 145.025 70.259 145.613 73.0285ZM135.178 76.0197C135.005 75.2041 134.734 74.4388 134.366 73.724C134.01 72.9868 133.579 72.3648 133.072 71.8578C132.561 71.3319 131.981 70.9496 131.332 70.7109C130.695 70.4499 130.01 70.3971 129.279 70.5526C128.531 70.7115 127.898 71.0147 127.378 71.4622C126.858 71.9098 126.444 72.4637 126.135 73.1241C125.839 73.7621 125.66 74.4842 125.598 75.2903C125.533 76.0774 125.589 76.8883 125.766 77.7229C125.936 78.5196 126.2 79.2961 126.561 80.0522C126.921 80.8084 127.36 81.4683 127.879 82.0322C128.398 82.596 128.978 83.0179 129.619 83.298C130.277 83.5746 130.979 83.6335 131.726 83.4746C132.474 83.3157 133.106 83.003 133.621 82.5365C134.149 82.0476 134.557 81.4652 134.846 80.7893C135.13 80.0944 135.301 79.3344 135.358 78.5093C135.416 77.6842 135.356 76.8544 135.178 76.0197Z" fill="#FDD100"/>
<path d="M145.608 73.0291C145.019 70.2596 144.113 67.8351 142.89 65.7556C141.678 63.6537 140.23 61.9593 138.543 60.6721C136.868 59.3627 134.986 58.484 132.896 58.036C130.822 57.5847 128.632 57.6041 126.326 58.0943C124.895 58.3985 123.585 58.9247 122.398 59.6727C121.21 60.4208 120.151 61.3399 119.219 62.4302C118.303 63.517 117.525 64.7432 116.884 66.1086C116.243 67.474 115.754 68.9262 115.416 70.4651C115.095 72.0007 114.936 73.6007 114.941 75.2651C114.941 76.9105 115.117 78.5584 115.468 80.2088C115.827 81.897 116.346 83.4817 117.027 84.9628C117.723 86.4406 118.535 87.7947 119.461 89.0253C120.4 90.2335 121.441 91.3009 122.585 92.2274C123.742 93.1315 124.969 93.862 126.268 94.4187C127.562 94.9564 128.9 95.3065 130.281 95.469C131.678 95.6281 133.092 95.5555 134.523 95.2512C136.002 94.9369 137.353 94.4117 138.577 93.6759C139.796 92.9211 140.873 92.008 141.809 90.9367C142.761 89.8621 143.559 88.6515 144.204 87.3051C144.861 85.9363 145.35 84.4841 145.672 82.9486C146.009 81.4096 146.176 79.8079 146.171 78.1435C146.163 76.4601 145.975 74.7553 145.608 73.0291ZM125.761 77.7235C125.584 76.8889 125.528 76.078 125.593 75.2909C125.654 74.4848 125.833 73.7627 126.13 73.1247C126.438 72.4643 126.852 71.9104 127.372 71.4628C127.892 71.0153 128.526 70.7121 129.273 70.5532C130.005 70.3977 130.689 70.4505 131.327 70.7115C131.976 70.9502 132.556 71.3325 133.067 71.8584C133.573 72.3653 134.005 72.9874 134.361 73.7246C134.729 74.4394 135 75.2047 135.173 76.0203C135.35 76.855 135.41 77.6848 135.353 78.5099C135.296 79.335 135.125 80.095 134.84 80.7899C134.552 81.4658 134.144 82.0482 133.616 82.5371C133.1 83.0036 132.468 83.3163 131.721 83.4752L131.308 81.5328C131.84 81.4196 132.232 81.2114 132.526 80.9469C132.881 80.6159 133.14 80.2404 133.322 79.8181C133.515 79.3411 133.637 78.81 133.678 78.2098C133.721 77.6025 133.677 76.991 133.544 76.3665C133.413 75.7501 133.211 75.1822 132.94 74.6542L132.926 74.6284L132.914 74.6024C132.655 74.0663 132.358 73.6484 132.032 73.3213L132.021 73.3112L132.011 73.3008C131.697 72.9776 131.344 72.7425 130.932 72.591L130.904 72.5809L130.877 72.5698C130.56 72.4396 130.175 72.3917 129.686 72.4956C129.138 72.6123 128.732 72.8213 128.427 73.0834C128.085 73.3783 127.818 73.7349 127.618 74.1636L127.618 74.1637C127.433 74.5617 127.31 75.0338 127.266 75.6059L127.266 75.6135L127.265 75.6214C127.22 76.1709 127.257 76.7525 127.39 77.3774C127.519 77.9865 127.723 78.5883 128.008 79.1864C128.278 79.7532 128.598 80.2295 128.966 80.6298C129.308 81.0011 129.678 81.2693 130.086 81.4496C130.421 81.5884 130.816 81.6375 131.308 81.5328L131.721 83.4752C130.973 83.6341 130.271 83.5752 129.614 83.2986C128.973 83.0185 128.393 82.5966 127.874 82.0328C127.355 81.4689 126.915 80.809 126.555 80.0528C126.195 79.2967 125.93 78.5202 125.761 77.7235ZM147.236 72.683C147.635 74.56 147.842 76.4247 147.851 78.2733L147.851 78.2761L147.851 78.2789C147.856 80.096 147.675 81.8537 147.305 83.5478L147.305 83.5479C146.949 85.2463 146.407 86.8526 145.683 88.3636L145.683 88.3637C144.966 89.8599 144.079 91.2053 143.025 92.397L143.026 92.3972C141.981 93.593 140.784 94.6051 139.442 95.436L139.434 95.4409L139.426 95.4458C138.056 96.2696 136.557 96.8493 134.936 97.1937C133.365 97.5277 131.797 97.6103 130.239 97.4328L130.236 97.4324L130.233 97.4322C128.718 97.2539 127.242 96.8686 125.811 96.274L125.802 96.2704L125.794 96.2667C124.361 95.6524 123.004 94.8451 121.726 93.8457L121.701 93.826C120.44 92.8052 119.291 91.6279 118.257 90.2965L118.248 90.2839L118.238 90.2712C117.219 88.9174 116.33 87.4322 115.57 85.8207L115.566 85.8107L115.561 85.8004C114.805 84.1557 114.233 82.4049 113.839 80.5549C113.455 78.7466 113.261 76.935 113.261 75.1242C113.256 73.3096 113.429 71.5554 113.783 69.8658L113.785 69.8558L113.788 69.846C114.158 68.1587 114.695 66.5633 115.399 65.0634C116.106 63.5558 116.968 62.1973 117.983 60.9923L117.987 60.9879L117.991 60.9833C119.029 59.769 120.208 58.7472 121.523 57.9186C122.862 57.0748 124.329 56.4885 125.913 56.1518C128.387 55.6259 130.781 55.5958 133.081 56.0957L133.081 56.0957C135.391 56.5906 137.506 57.5708 139.403 59.0538L139.402 59.0538C141.3 60.5062 142.916 62.4045 144.25 64.7153L144.377 64.9339C145.677 67.2035 146.623 69.7968 147.236 72.683Z" fill="black"/>
<ellipse cx="130.753" cy="77.4347" rx="6.55256" ry="7.8155" transform="rotate(-12 130.753 77.4347)" fill="#FDD100"/>
<path d="M135.781 69.326L136.329 71.905C136.753 73.9044 135.416 75.9495 133.48 76.3609L127.667 77.5959C126.075 77.9342 125.045 79.5721 125.384 81.1659L126.559 86.6964C126.893 88.2695 128.462 88.905 130.096 89.0295C132.052 89.1806 133.839 88.9006 135.905 87.7953C137.279 87.062 138.544 85.9018 138.188 84.2254L137.718 82.0108L131.905 83.2459L131.748 82.509L140.467 80.6564C142.159 80.297 142.539 78.9873 142.752 77.0947C142.972 75.1488 142.575 73.403 141.498 71.1916C140.722 69.5999 139.654 68.5074 137.962 68.8668L135.781 69.326ZM135.49 84.0286C136.091 83.9008 136.685 84.2895 136.814 84.898C136.945 85.5105 136.561 86.1112 135.96 86.239C135.359 86.3667 134.763 85.9699 134.634 85.3613C134.5 84.7537 134.889 84.1563 135.49 84.0286Z" fill="#E2242B"/>
<path d="M127.804 64.5351C126.81 64.7507 125.879 65.0393 125.077 65.3613C122.707 66.3192 122.451 67.3209 122.808 68.9974L123.278 71.2121L129.095 69.9762L129.252 70.713L121.25 72.4132C119.558 72.7726 118.294 74.1013 118.243 76.1281C118.179 78.4564 118.451 79.8393 119.498 82.0312C120.273 83.6619 121.524 84.6767 123.216 84.3173L125.214 83.8927L124.651 81.2392C124.243 79.3225 125.546 77.2762 127.515 76.8577L133.324 75.6235C134.941 75.28 135.952 73.6763 135.607 72.0536L134.433 66.5272C134.099 64.9542 132.516 64.0531 130.881 64.1279C129.847 64.1747 128.794 64.3204 127.804 64.5351ZM125.036 66.9837C125.637 66.856 126.233 67.2529 126.362 67.8615C126.491 68.47 126.107 69.0665 125.506 69.1943C124.904 69.322 124.311 68.9333 124.181 68.3248C124.048 67.7172 124.431 67.1123 125.036 66.9837Z" fill="black"/>
<path d="M184.792 76.7455C185.183 78.5854 185.546 80.4142 185.881 82.2318C186.229 84.0298 186.557 85.8492 186.863 87.6901L172.743 90.436C172.619 87.4503 172.432 84.4865 172.181 81.5448C171.926 78.5867 171.488 75.6423 170.865 72.7116C170.82 72.4999 170.739 72.1597 170.622 71.691C170.506 71.2223 170.361 70.7 170.187 70.1243C170.01 69.5322 169.807 68.9372 169.578 68.3393C169.362 67.7216 169.117 67.1695 168.843 66.6831C168.586 66.1932 168.309 65.8097 168.012 65.5325C167.727 65.2356 167.43 65.12 167.121 65.1858C166.567 65.3034 166.13 65.5666 165.808 65.9753C165.503 66.3806 165.275 66.8714 165.126 67.4478C164.989 68.0044 164.915 68.6158 164.903 69.282C164.891 69.9481 164.912 70.6073 164.966 71.2596C165.036 71.9085 165.115 72.5213 165.204 73.0981C165.305 73.6551 165.394 74.1127 165.47 74.4709C166.001 77.3702 166.545 80.2496 167.102 83.1093C167.655 85.9528 168.199 88.8323 168.734 91.7477L156.392 94.9326C155.496 89.1158 154.591 83.3351 153.676 77.5904C152.778 71.8423 151.807 66.0754 150.764 60.2898L162.168 57.2534L162.9 61.1818C163.239 60.5313 163.616 59.9065 164.034 59.3073C164.467 58.7046 164.949 58.1683 165.478 57.6983C166.005 57.2121 166.581 56.8003 167.207 56.463C167.846 56.106 168.54 55.8479 169.289 55.6887C170.673 55.3945 171.934 55.3646 173.073 55.599C174.212 55.8334 175.239 56.2618 176.154 56.8841C177.069 57.5065 177.893 58.3013 178.626 59.2686C179.356 60.2197 180.004 61.2647 180.569 62.4038C181.135 63.543 181.639 64.7546 182.082 66.0389C182.522 67.3068 182.901 68.5706 183.22 69.8302C183.555 71.0863 183.849 72.3087 184.101 73.4973C184.354 74.6859 184.584 75.7686 184.792 76.7455Z" fill="#0D83A1"/>
<path d="M179.85 72.2846C180.241 74.1245 180.605 75.9532 180.94 77.7709C181.288 79.5688 181.615 81.3883 181.921 83.2291L167.802 85.9751C167.678 82.9893 167.49 80.0256 167.239 77.0838C166.985 74.1258 166.546 71.1814 165.923 68.2506C165.878 68.039 165.798 67.6988 165.681 67.2301C165.564 66.7614 165.419 66.2391 165.246 65.6633C165.069 65.0713 164.866 64.4763 164.637 63.8783C164.42 63.2607 164.175 62.7086 163.902 62.2222C163.644 61.7323 163.367 61.3488 163.07 61.0716C162.786 60.7747 162.489 60.6591 162.18 60.7248C161.626 60.8425 161.188 61.1057 160.867 61.5144C160.562 61.9196 160.334 62.4104 160.184 62.9868C160.047 63.5435 159.973 64.1549 159.962 64.821C159.95 65.4872 159.971 66.1464 160.025 66.7987C160.094 67.4475 160.174 68.0603 160.262 68.6371C160.364 69.1942 160.452 69.6518 160.528 70.01C161.06 72.9092 161.604 75.7887 162.16 78.6484C162.714 81.4918 163.258 84.3713 163.792 87.2868L151.451 90.4716C150.555 84.6549 149.649 78.8742 148.735 73.1295C147.836 67.3813 146.866 61.6145 145.823 55.8289L157.226 52.7924L157.959 56.7209C158.297 56.0704 158.675 55.4455 159.092 54.8463C159.526 54.2437 160.007 53.7074 160.537 53.2374C161.063 52.7511 161.639 52.3394 162.265 52.0021C162.904 51.6451 163.598 51.387 164.347 51.2278C165.731 50.9336 166.993 50.9037 168.132 51.1381C169.271 51.3725 170.298 51.8009 171.213 52.4232C172.128 53.0455 172.952 53.8404 173.685 54.8077C174.415 55.7587 175.062 56.8038 175.628 57.9429C176.193 59.082 176.697 60.2937 177.141 61.5779C177.58 62.8459 177.96 64.1096 178.278 65.3693C178.613 66.6254 178.907 67.8478 179.16 69.0363C179.413 70.2249 179.643 71.3077 179.85 72.2846Z" fill="#FDD100"/>
<path d="M164.255 68.6047C164.217 68.424 164.142 68.1083 164.026 67.6414C163.917 67.205 163.78 66.7099 163.613 66.1546L163.612 66.151C163.447 65.6017 163.258 65.0473 163.044 64.4881L163.035 64.4649L163.027 64.4415C162.838 63.9023 162.632 63.4435 162.415 63.0573L162.403 63.0361L162.392 63.0143C162.31 62.8597 162.234 62.7333 162.164 62.6302C162.039 62.8188 161.924 63.0687 161.836 63.4032C161.735 63.816 161.675 64.2957 161.665 64.8503C161.654 65.4534 161.673 66.0487 161.721 66.6366C161.786 67.2451 161.86 67.8166 161.942 68.3517C162.04 68.8907 162.124 69.3238 162.195 69.6553L162.2 69.6789L162.204 69.7024C162.734 72.5955 163.277 75.4689 163.832 78.3224C164.387 81.172 164.932 84.0577 165.468 86.9791L165.754 88.5404L150.052 92.5924L149.765 90.7308C148.87 84.9169 147.965 79.139 147.05 73.3972L147.05 73.3948L147.05 73.3923C146.153 67.6573 145.185 61.9035 144.145 56.1308L143.866 54.5854L158.563 50.6717L158.894 52.4453C159.06 52.2786 159.23 52.1172 159.405 51.9619C160.029 51.3893 160.713 50.9014 161.456 50.5011C162.244 50.0636 163.092 49.7513 163.992 49.5601C165.557 49.2274 167.061 49.1774 168.474 49.4683C169.822 49.7457 171.06 50.2583 172.17 51.0134C173.25 51.7476 174.204 52.6726 175.036 53.7697L175.185 53.9665C175.925 54.956 176.58 56.0298 177.153 57.1846C177.753 58.3928 178.285 59.6718 178.75 61.0198C179.203 62.3251 179.594 63.6284 179.924 64.9296L180.051 65.4089C180.341 66.5241 180.6 67.615 180.826 68.6816L181.517 71.9298C181.911 73.7845 182.277 75.6283 182.615 77.4614C182.965 79.2695 183.294 81.0988 183.602 82.9491L183.874 84.5852L166.18 88.0264L166.098 86.0455C165.975 83.0842 165.789 80.1451 165.54 77.2283C165.292 74.3413 164.864 71.4669 164.255 68.6047ZM165.922 68.2503C166.545 71.181 166.984 74.1254 167.238 77.0835C167.489 80.0252 167.677 82.989 167.801 85.9747L181.92 83.2288C181.614 81.3879 181.287 79.5685 180.939 77.7705C180.604 75.9529 180.24 74.1241 179.849 72.2842L179.159 69.036C178.906 67.8474 178.612 66.625 178.277 65.3689C177.959 64.1093 177.579 62.8455 177.14 61.5776C176.697 60.2933 176.192 59.0817 175.627 57.9425C175.061 56.8034 174.414 55.7584 173.684 54.8073C172.951 53.84 172.127 53.0452 171.212 52.4228C170.297 51.8005 169.27 51.3721 168.131 51.1377C166.992 50.9033 165.73 50.9332 164.346 51.2274C163.597 51.3866 162.903 51.6447 162.265 52.0017C161.638 52.339 161.062 52.7508 160.536 53.237C160.006 53.707 159.525 54.2433 159.091 54.846C158.674 55.4452 158.296 56.07 157.958 56.7205L157.225 52.7921L145.822 55.8285C146.865 61.6141 147.835 67.381 148.734 73.1291C149.648 78.8738 150.554 84.6545 151.45 90.4713L163.791 87.2864C163.257 84.3709 162.713 81.4915 162.159 78.648C161.603 75.7883 161.059 72.9089 160.527 70.0096C160.451 69.6514 160.363 69.1938 160.261 68.6368C160.173 68.06 160.093 67.4472 160.024 66.7983C159.97 66.146 159.949 65.4868 159.961 64.8207C159.972 64.1545 160.046 63.5431 160.183 62.9865C160.333 62.4101 160.561 61.9193 160.866 61.514C161.187 61.1053 161.625 60.8421 162.179 60.7245C162.488 60.6587 162.785 60.7743 163.069 61.0712C163.366 61.3484 163.644 61.7319 163.901 62.2218C164.174 62.7082 164.419 63.2603 164.636 63.878C164.865 64.4759 165.068 65.0709 165.245 65.663C165.418 66.2387 165.563 66.761 165.68 67.2297C165.797 67.6984 165.877 68.0386 165.922 68.2503Z" fill="black"/>
<path d="M182.152 38.8121C180.639 30.4318 198.79 30.8331 211.273 33.6505C211.955 37.2918 212.843 45.0253 212.843 45.0253C212.843 45.0253 199.546 43.4578 199.546 47.8928C199.546 49.515 200.494 51.937 200.494 51.937L213.09 49.1686L215.566 60.8386L204.407 63.7932L207.839 79.9275L191.672 84.0557L188.161 67.3723L180.938 69.3851L177.574 55.034L185.189 53.2492L182.152 38.8121Z" fill="#0D83A1"/>
<path d="M179.682 38.9369C177.463 30.8402 195.717 29.6313 207.473 32.4234C207.808 34.3946 208.147 36.3432 208.493 38.2684C208.838 40.1936 209.158 42.1466 209.453 44.1273C209.453 44.1273 196.29 42.5363 196.047 47.7995C195.974 49.3616 196.962 51.7067 196.962 51.7067L208.84 49.112L210.491 58.8652L200.013 61.648L204.085 78.7483L188.905 82.6332L185.504 66.5205L178.725 68.4176L175.476 54.5549L182.625 52.8794L179.682 38.9369Z" fill="#FDD100"/>
<path d="M194.742 46.5416C196.048 41.4059 207.486 42.8283 207.486 42.8283C207.261 41.3945 207.024 39.9756 206.772 38.5718C206.496 37.0322 206.224 35.4778 205.955 33.9095C200.773 32.7648 197.803 32.76 193.428 32.7322C189.054 32.7043 180.004 33.4347 181.624 39.6824L184.698 54.2397L177.587 55.9063L179.998 66.1951L186.818 64.2868L190.227 80.4393L201.975 77.4326L198.703 61.9649L209.288 59.1533L207.436 51.2873L195.671 53.8555C195.671 53.8555 194.023 49.3692 194.742 46.5416ZM196.962 51.7069L208.84 49.1123L211.286 60.4823L200.809 63.2652L204.085 78.7488L188.905 82.6337L185.504 66.5209L178.725 68.4179L175.476 54.5552L182.625 52.8796L179.682 38.9369C177.463 30.8402 195.717 29.6313 207.473 32.4234L207.979 35.3631C208.149 36.3374 208.32 37.3059 208.493 38.2685L208.747 39.7177C208.997 41.172 209.232 42.642 209.453 44.1275C209.453 44.1275 196.72 43.0045 196.476 48.2678C196.404 49.83 196.962 51.7069 196.962 51.7069Z" fill="black"/>
<path d="M105.543 108.279L222.337 77.9112L222.626 99.7732L104.309 129.998L105.543 108.279Z" fill="black"/>
<path d="M99.3645 106.863L215.162 78.174L215.183 97.8059L97.8815 126.385L99.3645 106.863Z" fill="#FDD100"/>
<path d="M208.407 90.3761C208.517 90.8136 208.541 91.2311 208.477 91.6285C208.412 92.0224 208.276 92.381 208.067 92.7043C207.862 93.0231 207.59 93.2994 207.252 93.5333C206.915 93.7671 206.529 93.9388 206.095 94.0482C205.74 94.1377 205.407 94.1701 205.095 94.1457C204.788 94.1202 204.499 94.05 204.23 93.9348C203.964 93.8187 203.721 93.6627 203.5 93.4667C203.279 93.2707 203.08 93.0482 202.903 92.7992C202.729 92.5493 202.578 92.2765 202.45 91.9808C202.322 91.6851 202.218 91.3794 202.139 91.0639C202.041 90.6766 201.975 90.2929 201.94 89.9126C201.905 89.5288 201.905 89.1606 201.942 88.8081C201.983 88.4546 202.064 88.1177 202.185 87.7972C202.306 87.4768 202.473 87.1868 202.686 86.9271C202.899 86.6675 203.161 86.4414 203.471 86.2489C203.783 86.0518 204.151 85.9 204.574 85.7933C204.729 85.7544 204.888 85.7218 205.053 85.6955C205.217 85.6656 205.384 85.6464 205.554 85.638C205.723 85.6296 205.89 85.6333 206.054 85.6491C206.222 85.664 206.384 85.6955 206.541 85.7437L206.914 87.9036C206.628 87.8423 206.328 87.8169 206.014 87.8273C205.703 87.8333 205.407 87.8716 205.128 87.9421C204.905 87.9981 204.722 88.0806 204.578 88.1894C204.433 88.2946 204.32 88.4222 204.24 88.5721C204.159 88.7221 204.108 88.8913 204.087 89.0796C204.069 89.2636 204.077 89.4618 204.111 89.6743C204.314 89.4783 204.539 89.307 204.788 89.1603C205.037 89.0136 205.302 88.905 205.581 88.8345C205.897 88.755 206.207 88.7284 206.511 88.7547C206.815 88.781 207.092 88.8598 207.343 88.9911C207.597 89.1216 207.816 89.3028 208 89.5347C208.188 89.7658 208.324 90.0462 208.407 90.3761ZM206.404 91.0528C206.376 90.9416 206.326 90.8493 206.254 90.7759C206.185 90.698 206.103 90.6385 206.009 90.5975C205.917 90.5519 205.817 90.5256 205.708 90.5187C205.599 90.5081 205.494 90.5155 205.394 90.5408C205.293 90.5661 205.199 90.6089 205.111 90.6692C205.023 90.7259 204.947 90.7964 204.884 90.8809C204.825 90.9608 204.781 91.0519 204.753 91.1542C204.728 91.252 204.73 91.3565 204.758 91.4677C204.785 91.5753 204.833 91.668 204.902 91.7459C204.974 91.8193 205.056 91.877 205.146 91.919C205.24 91.96 205.34 91.9863 205.446 91.9978C205.551 92.0056 205.654 91.9969 205.754 91.9716C205.855 91.9463 205.951 91.9048 206.043 91.8472C206.135 91.7861 206.21 91.7155 206.27 91.6356C206.334 91.5547 206.378 91.4654 206.403 91.3676C206.431 91.2653 206.431 91.1603 206.404 91.0528Z" fill="black"/>
<path d="M200.31 90.0777C200.383 90.3646 200.4 90.652 200.362 90.94C200.323 91.2244 200.246 91.5031 200.132 91.7759C200.02 92.0443 199.88 92.3029 199.71 92.5517C199.543 92.796 199.367 93.0233 199.184 93.2335L200.883 92.805L201.318 95.0751L196.241 96.1722L195.747 94.2143C195.921 94.1019 196.1 93.9746 196.286 93.8325C196.474 93.686 196.653 93.5282 196.824 93.3593C196.999 93.1894 197.157 93.0084 197.299 92.8161C197.445 92.623 197.565 92.4232 197.657 92.2167C197.753 92.0058 197.814 91.7882 197.842 91.5639C197.873 91.3387 197.858 91.1078 197.799 90.8711C197.764 90.7348 197.709 90.621 197.633 90.5297C197.56 90.4375 197.472 90.3681 197.368 90.3217C197.264 90.2717 197.151 90.245 197.028 90.2416C196.908 90.2338 196.783 90.2462 196.654 90.2787C196.546 90.3058 196.44 90.3459 196.335 90.3991C196.23 90.4486 196.128 90.5085 196.032 90.5786C195.935 90.6488 195.846 90.7283 195.766 90.8173C195.688 90.9017 195.621 90.9929 195.566 91.0908L194.561 89.1016C194.66 88.9355 194.785 88.7859 194.934 88.6529C195.084 88.5198 195.247 88.4025 195.423 88.3008C195.599 88.1955 195.782 88.1054 195.973 88.0306C196.164 87.9558 196.354 87.8944 196.544 87.8465C196.967 87.7398 197.381 87.7175 197.786 87.7795C198.19 87.8379 198.56 87.9676 198.897 88.1688C199.236 88.3654 199.529 88.6272 199.775 88.9541C200.025 89.2801 200.204 89.6546 200.31 90.0777Z" fill="black"/>
<path d="M193.947 93.1091C194.026 93.4246 194.069 93.7474 194.076 94.0775C194.087 94.4066 194.062 94.7313 194.002 95.0517C193.941 95.372 193.845 95.6802 193.714 95.9765C193.586 96.2718 193.422 96.5421 193.221 96.7874C193.019 97.0326 192.783 97.2448 192.512 97.4238C192.244 97.6019 191.939 97.7339 191.599 97.8198C191.255 97.9066 190.921 97.9355 190.597 97.9065C190.273 97.8776 189.964 97.8028 189.671 97.6823C189.381 97.5609 189.108 97.4009 188.852 97.2023C188.596 97.0037 188.365 96.7777 188.16 96.5243C187.955 96.2708 187.777 95.9972 187.627 95.7033C187.479 95.4049 187.366 95.0998 187.288 94.7878C187.209 94.4758 187.164 94.1535 187.153 93.8207C187.145 93.4871 187.171 93.1601 187.231 92.8398C187.292 92.5195 187.387 92.2112 187.519 91.915C187.649 91.6151 187.813 91.3431 188.011 91.0987C188.212 90.8534 188.449 90.6413 188.72 90.4623C188.995 90.2824 189.303 90.1495 189.643 90.0636C189.984 89.9777 190.315 89.9497 190.635 89.9796C190.959 90.0085 191.267 90.0832 191.561 90.2037C191.854 90.3242 192.128 90.486 192.381 90.6891C192.637 90.8878 192.868 91.1138 193.073 91.3672C193.278 91.6206 193.454 91.8965 193.602 92.1949C193.753 92.4924 193.868 92.7971 193.947 93.1091ZM191.717 93.8426C191.678 93.6849 191.612 93.5146 191.52 93.3318C191.428 93.149 191.316 92.9846 191.184 92.8387C191.052 92.6928 190.901 92.5801 190.733 92.5006C190.564 92.4211 190.383 92.4057 190.189 92.4546C189.992 92.5043 189.838 92.6041 189.727 92.7541C189.616 92.9041 189.535 93.0752 189.484 93.2672C189.437 93.4583 189.416 93.6562 189.422 93.8606C189.428 94.0651 189.451 94.2463 189.491 94.404C189.53 94.5618 189.596 94.7321 189.688 94.9149C189.78 95.0977 189.892 95.262 190.024 95.408C190.16 95.553 190.312 95.6653 190.481 95.7448C190.65 95.8242 190.833 95.8391 191.03 95.7894C191.223 95.7406 191.376 95.6412 191.487 95.4912C191.597 95.3412 191.677 95.1706 191.724 94.9795C191.771 94.7883 191.792 94.5905 191.786 94.386C191.78 94.1816 191.757 94.0004 191.717 93.8426Z" fill="black"/>
<path d="M185.537 94.0055C185.609 94.2923 185.626 94.5798 185.588 94.8678C185.549 95.1522 185.473 95.4308 185.359 95.7037C185.247 95.9721 185.106 96.2307 184.936 96.4794C184.769 96.7237 184.594 96.951 184.41 97.1612L186.11 96.7327L186.545 99.0029L181.467 100.1L180.973 98.1421C181.147 98.0296 181.327 97.9024 181.512 97.7603C181.7 97.6137 181.88 97.4559 182.051 97.287C182.225 97.1171 182.384 96.9361 182.526 96.7439C182.672 96.5507 182.791 96.3509 182.884 96.1445C182.98 95.9335 183.041 95.7159 183.068 95.4916C183.099 95.2664 183.085 95.0355 183.025 94.7988C182.991 94.6626 182.936 94.5488 182.859 94.4574C182.786 94.3652 182.698 94.2959 182.595 94.2494C182.491 94.1994 182.377 94.1727 182.254 94.1694C182.134 94.1615 182.01 94.1739 181.881 94.2064C181.773 94.2336 181.667 94.2737 181.562 94.3268C181.456 94.3763 181.355 94.4362 181.258 94.5063C181.162 94.5765 181.073 94.656 180.992 94.745C180.914 94.8295 180.848 94.9206 180.792 95.0185L179.788 93.0293C179.887 92.8632 180.011 92.7136 180.161 92.5806C180.31 92.4476 180.473 92.3302 180.65 92.2285C180.825 92.1232 181.008 92.0332 181.199 91.9583C181.39 91.8835 181.581 91.8221 181.771 91.7742C182.194 91.6676 182.608 91.6452 183.012 91.7072C183.416 91.7656 183.786 91.8954 184.123 92.0965C184.463 92.2932 184.755 92.5549 185.002 92.8818C185.252 93.2078 185.43 93.5823 185.537 94.0055Z" fill="black"/>
<path d="M176.076 97.0751C176.203 97.5771 176.252 98.0434 176.223 98.474C176.194 98.9045 176.102 99.3034 175.947 99.6705C175.794 100.033 175.585 100.362 175.32 100.658C175.056 100.954 174.751 101.219 174.406 101.455C174.06 101.687 173.68 101.889 173.266 102.063C172.856 102.235 172.425 102.378 171.973 102.492C171.804 102.534 171.638 102.572 171.475 102.606C171.311 102.635 171.143 102.663 170.969 102.687L169.355 95.6461C169.717 95.4212 170.1 95.2312 170.504 95.0761C170.91 94.9165 171.319 94.7848 171.731 94.6808C172.244 94.5516 172.734 94.5044 173.2 94.5394C173.667 94.5743 174.091 94.6923 174.474 94.8934C174.855 95.0908 175.184 95.3722 175.459 95.7376C175.737 96.0986 175.942 96.5444 176.076 97.0751ZM172.939 100.063C173.146 99.9761 173.325 99.8623 173.477 99.7212C173.631 99.5756 173.754 99.4148 173.847 99.2388C173.939 99.0592 173.996 98.8694 174.018 98.6694C174.043 98.4648 174.029 98.2585 173.977 98.0506C173.925 97.8462 173.856 97.6615 173.768 97.4967C173.68 97.3282 173.571 97.1917 173.442 97.087C173.312 96.9787 173.158 96.9068 172.981 96.8713C172.804 96.8322 172.599 96.838 172.368 96.8887L172.939 100.063Z" fill="black"/>
<path d="M169.726 102.722L167.145 103.739L166.516 102.605L165.289 102.914L165.327 104.197L162.516 104.62L162.851 96.9156L165.803 96.0111L169.726 102.722ZM165.907 101.008L165.027 99.2388L165.1 101.211L165.907 101.008Z" fill="black"/>
<path d="M161.186 103.332C161.261 103.63 161.27 103.9 161.213 104.143C161.16 104.386 161.061 104.605 160.916 104.802C160.771 104.999 160.59 105.176 160.375 105.333C160.161 105.486 159.932 105.622 159.688 105.741C159.443 105.86 159.192 105.961 158.935 106.045C158.681 106.128 158.442 106.198 158.216 106.255C157.993 106.311 157.76 106.36 157.515 106.403C157.275 106.448 157.031 106.481 156.785 106.501C156.538 106.521 156.292 106.528 156.046 106.521C155.799 106.511 155.561 106.482 155.332 106.433L153.574 99.5076C153.754 99.3745 153.949 99.2472 154.159 99.1257C154.368 99.0006 154.583 98.8872 154.805 98.7854C155.03 98.6791 155.256 98.5858 155.484 98.5056C155.711 98.4217 155.934 98.3522 156.152 98.297C156.407 98.2329 156.667 98.1844 156.934 98.1515C157.204 98.1178 157.468 98.1083 157.727 98.1231C157.987 98.1378 158.236 98.1799 158.474 98.2494C158.712 98.3153 158.93 98.4167 159.129 98.5535C159.331 98.6894 159.504 98.8631 159.649 99.0745C159.798 99.285 159.91 99.5426 159.987 99.8474C160.038 100.048 160.056 100.244 160.043 100.434C160.03 100.624 159.988 100.803 159.915 100.97C159.843 101.137 159.742 101.29 159.613 101.429C159.484 101.565 159.328 101.68 159.146 101.776C159.394 101.778 159.629 101.814 159.848 101.885C160.072 101.954 160.271 102.056 160.446 102.191C160.625 102.326 160.777 102.489 160.902 102.683C161.031 102.876 161.125 103.092 161.186 103.332ZM157.681 100.955C157.654 100.851 157.611 100.769 157.55 100.708C157.488 100.643 157.418 100.596 157.342 100.566C157.269 100.534 157.193 100.518 157.112 100.515C157.035 100.512 156.968 100.517 156.91 100.532C156.838 100.55 156.771 100.578 156.709 100.617C156.646 100.655 156.586 100.697 156.528 100.742L156.797 101.944C156.88 101.924 156.98 101.891 157.098 101.846C157.217 101.801 157.326 101.741 157.425 101.666C157.527 101.587 157.606 101.491 157.661 101.378C157.716 101.261 157.722 101.12 157.681 100.955ZM157.359 102.901C157.255 102.927 157.157 102.963 157.066 103.009L157.353 104.241C157.41 104.238 157.465 104.236 157.517 104.234C157.573 104.228 157.626 104.218 157.676 104.206C157.751 104.187 157.832 104.159 157.918 104.122C158.003 104.081 158.079 104.028 158.147 103.961C158.213 103.891 158.261 103.808 158.29 103.713C158.323 103.617 158.322 103.501 158.288 103.365C158.254 103.229 158.199 103.124 158.123 103.052C158.051 102.978 157.972 102.928 157.885 102.9C157.797 102.869 157.706 102.857 157.613 102.866C157.519 102.87 157.434 102.882 157.359 102.901Z" fill="black"/>
<path d="M154.082 106.669L151.501 107.686L150.871 106.552L149.645 106.861L149.682 108.144L146.872 108.567L147.206 100.863L150.159 99.9583L154.082 106.669ZM150.263 104.955L149.382 103.186L149.456 105.158L150.263 104.955Z" fill="black"/>
<path d="M144.625 104.032C144.696 104.311 144.735 104.572 144.743 104.814C144.753 105.052 144.73 105.279 144.674 105.495C144.618 105.712 144.528 105.921 144.403 106.124C144.279 106.327 144.119 106.532 143.923 106.737L145.778 108.695L143.477 109.779L142.071 107.696L141.409 107.886L141.877 110.148L139.564 110.731C139.376 109.909 139.187 109.091 138.997 108.277C138.81 107.462 138.625 106.643 138.44 105.82C138.343 105.406 138.248 104.995 138.153 104.588C138.058 104.181 137.969 103.769 137.886 103.351C138.114 103.194 138.342 103.055 138.57 102.932C138.799 102.81 139.031 102.702 139.267 102.608C139.505 102.51 139.748 102.424 139.997 102.35C140.248 102.271 140.506 102.198 140.771 102.132C141.18 102.029 141.589 101.986 141.998 102.005C142.41 102.02 142.791 102.103 143.142 102.255C143.493 102.407 143.799 102.629 144.059 102.922C144.324 103.213 144.512 103.583 144.625 104.032ZM142.259 104.811C142.221 104.661 142.165 104.528 142.09 104.413C142.019 104.298 141.931 104.206 141.826 104.137C141.723 104.063 141.605 104.017 141.47 103.998C141.338 103.974 141.192 103.982 141.03 104.023C140.959 104.041 140.89 104.064 140.825 104.092C140.758 104.116 140.695 104.145 140.635 104.18L141.054 106.202L141.183 106.17C141.337 106.131 141.488 106.072 141.636 105.992C141.787 105.912 141.915 105.815 142.02 105.701C142.128 105.586 142.206 105.454 142.252 105.305C142.302 105.155 142.304 104.991 142.259 104.811Z" fill="black"/>
<path d="M137.073 106.826C137.152 107.138 137.209 107.456 137.244 107.779C136.641 107.973 136.048 108.191 135.464 108.433C134.88 108.672 134.296 108.911 133.711 109.15C133.87 109.384 134.067 109.554 134.303 109.658C134.543 109.762 134.801 109.779 135.077 109.709C135.22 109.673 135.369 109.607 135.524 109.511C135.683 109.414 135.837 109.304 135.985 109.183C136.133 109.058 136.272 108.929 136.403 108.797C136.534 108.665 136.645 108.548 136.737 108.444L137.095 110.951C136.982 111.094 136.853 111.224 136.707 111.341C136.564 111.457 136.411 111.56 136.247 111.651C136.083 111.742 135.914 111.821 135.74 111.888C135.566 111.954 135.393 112.009 135.221 112.053C134.866 112.142 134.53 112.176 134.211 112.153C133.893 112.13 133.592 112.063 133.308 111.952C133.027 111.836 132.767 111.682 132.528 111.49C132.289 111.299 132.075 111.078 131.886 110.828C131.698 110.578 131.533 110.305 131.394 110.009C131.254 109.712 131.144 109.404 131.064 109.085C130.98 108.752 130.926 108.41 130.903 108.062C130.88 107.713 130.89 107.369 130.934 107.03C130.982 106.69 131.066 106.365 131.187 106.056C131.31 105.743 131.472 105.456 131.673 105.196C131.875 104.935 132.119 104.71 132.407 104.519C132.698 104.327 133.035 104.183 133.419 104.086C133.738 104.006 134.04 103.978 134.324 104.001C134.611 104.02 134.877 104.083 135.121 104.189C135.368 104.291 135.594 104.431 135.799 104.608C136.007 104.784 136.192 104.989 136.354 105.223C136.519 105.452 136.66 105.704 136.779 105.979C136.901 106.25 136.999 106.532 137.073 106.826ZM134.851 107.089C134.826 106.989 134.789 106.889 134.741 106.791C134.693 106.688 134.632 106.601 134.561 106.527C134.492 106.453 134.412 106.399 134.319 106.365C134.226 106.327 134.12 106.324 134.002 106.354C133.858 106.39 133.741 106.461 133.65 106.568C133.561 106.671 133.492 106.791 133.443 106.929C133.393 107.064 133.361 107.205 133.345 107.354C133.329 107.503 133.323 107.638 133.327 107.759L134.881 107.207L134.851 107.089Z" fill="black"/>
<path d="M129.654 108.778C129.781 109.28 129.83 109.747 129.801 110.177C129.772 110.608 129.68 111.007 129.525 111.374C129.372 111.736 129.163 112.065 128.899 112.361C128.634 112.657 128.329 112.922 127.984 113.158C127.638 113.39 127.258 113.593 126.844 113.766C126.434 113.938 126.003 114.081 125.551 114.195C125.382 114.237 125.216 114.275 125.053 114.309C124.889 114.339 124.721 114.366 124.548 114.39L122.933 107.349C123.296 107.124 123.679 106.934 124.082 106.779C124.488 106.62 124.897 106.488 125.309 106.384C125.822 106.255 126.312 106.208 126.778 106.242C127.245 106.277 127.669 106.395 128.052 106.596C128.433 106.794 128.762 107.075 129.037 107.441C129.315 107.802 129.52 108.247 129.654 108.778ZM126.517 111.766C126.724 111.679 126.904 111.565 127.055 111.424C127.209 111.279 127.332 111.118 127.425 110.942C127.517 110.762 127.574 110.573 127.596 110.372C127.621 110.168 127.607 109.962 127.555 109.754C127.503 109.549 127.434 109.365 127.346 109.2C127.258 109.031 127.149 108.895 127.02 108.79C126.89 108.682 126.736 108.61 126.56 108.574C126.382 108.535 126.177 108.541 125.946 108.592L126.517 111.766Z" fill="black"/>
<path d="M121.714 107.577L120.228 112.345L121.071 115.371L118.306 116.068L117.608 113.028L114.634 109.534L117.29 108.498L118.736 110.605L119.087 108.045L121.714 107.577Z" fill="black"/>
<path d="M115.309 116.935L112.652 117.742L112.004 115.263L110.767 115.575L111.285 117.949L108.876 118.557L107.174 110.943L109.764 110.416L110.576 114.318L111.77 114.017L110.734 109.862L113.203 109.308L115.309 116.935Z" fill="black"/>
</svg>
