<svg width="263" height="111" viewBox="0 0 263 111" fill="none" xmlns="http://www.w3.org/2000/svg">
<path d="M61.5235 27.0861C61.5235 30.0163 61.069 32.6143 60.1601 34.88C59.2512 37.1457 57.9975 39.1244 56.3991 40.8161C54.832 42.5078 52.9828 43.9427 50.8515 45.1208C48.7203 46.299 46.4323 47.2657 43.9877 48.0209C41.5743 48.7459 39.067 49.2897 36.4656 49.6522C33.8642 49.9845 31.3099 50.1658 28.8025 50.196V71.3121H6.89453C6.89453 64.3942 6.9102 57.5065 6.94154 50.6491C6.97289 43.7917 7.0199 36.8738 7.08258 29.8955C7.14527 26.21 7.16094 22.5245 7.1296 18.839C7.09825 15.1535 7.17661 11.4378 7.36466 7.69187C11.3764 6.54393 15.3882 5.68298 19.3999 5.109C23.4117 4.53503 27.5488 4.24805 31.8113 4.24805C34.2247 4.24805 36.638 4.44441 39.0513 4.83712C41.4646 5.19963 43.7683 5.78871 45.9622 6.60435C48.1875 7.41999 50.2404 8.4471 52.1209 9.68567C54.0327 10.894 55.6782 12.3441 57.0572 14.0358C58.4363 15.7275 59.5176 17.6609 60.3011 19.8359C61.116 21.9807 61.5235 24.3975 61.5235 27.0861ZM40.6498 28.6267C40.6498 26.6631 40.0229 25.1376 38.7692 24.0501C37.5469 22.9323 35.9485 22.3735 33.9739 22.3735C33.3157 22.3735 32.6262 22.4339 31.9054 22.5547C31.2158 22.6453 30.5577 22.7662 29.9308 22.9172L29.3667 36.1488C29.8055 36.2092 30.2286 36.2394 30.636 36.2394C31.0435 36.2394 31.4666 36.2394 31.9054 36.2394C33.0337 36.2394 34.115 36.0581 35.1493 35.6956C36.2149 35.3331 37.1551 34.8196 37.97 34.155C38.7849 33.4602 39.4274 32.6596 39.8975 31.7534C40.399 30.8169 40.6498 29.7747 40.6498 28.6267Z" fill="#0D83A1"/>
<path d="M50.933 23.6963C50.933 26.3738 50.5328 28.7477 49.7323 30.818C48.9318 32.8882 47.8277 34.6963 46.4199 36.242C45.0397 37.7878 43.4111 39.099 41.5341 40.1755C39.657 41.2521 37.642 42.1354 35.4889 42.8255C33.3635 43.4879 31.1552 43.9848 28.8641 44.316C26.573 44.6197 24.3234 44.7853 22.1151 44.8129V64.1077H2.82031C2.82031 57.7865 2.83411 51.4929 2.86172 45.2269C2.88932 38.961 2.93073 32.6398 2.98593 26.2634C3.04114 22.8958 3.05494 19.5282 3.02734 16.1606C2.99973 12.793 3.06874 9.39773 3.23436 5.97491C6.7676 4.92598 10.3008 4.13929 13.8341 3.61482C17.3673 3.09036 21.011 2.82813 24.765 2.82813C26.8905 2.82813 29.0159 3.00755 31.1414 3.36639C33.2669 3.69763 35.2957 4.2359 37.2279 4.98119C39.1878 5.72648 40.9958 6.665 42.652 7.79674C44.3358 8.90087 45.785 10.2258 46.9995 11.7716C48.2141 13.3174 49.1664 15.084 49.8565 17.0715C50.5742 19.0313 50.933 21.2396 50.933 23.6963ZM32.5492 25.1041C32.5492 23.3098 31.9971 21.9159 30.893 20.9222C29.8164 19.9008 28.4087 19.3902 26.6696 19.3902C26.09 19.3902 25.4827 19.4454 24.8478 19.5558C24.2405 19.6386 23.6609 19.749 23.1088 19.887L22.6119 31.9773C22.9984 32.0325 23.371 32.0601 23.7299 32.0601C24.0887 32.0601 24.4614 32.0601 24.8478 32.0601C25.8415 32.0601 26.7939 31.8945 27.7048 31.5633C28.6433 31.232 29.4714 30.7628 30.1891 30.1555C30.9068 29.5206 31.4726 28.7891 31.8867 27.961C32.3283 27.1053 32.5492 26.153 32.5492 25.1041Z" fill="#FDD100"/>
<path d="M50.9393 23.6948C50.9393 21.2381 50.5805 19.0298 49.8628 17.0699C49.1727 15.0825 48.2204 13.3159 47.0058 11.7701C45.7913 10.2243 44.3421 8.89934 42.6583 7.7952C41.0021 6.66346 39.1941 5.72495 37.2342 4.97965C35.302 4.23436 33.2731 3.6961 31.1477 3.36485C29.0222 3.00601 26.8967 2.82659 24.7713 2.82659C21.0172 2.82659 17.3736 3.08882 13.8403 3.61329C10.3071 4.13775 6.77387 4.92445 3.24064 5.97338C3.07502 9.3962 3.00601 12.7914 3.03361 16.159C3.06122 19.5266 3.04742 22.8943 2.99221 26.2619C2.937 32.6383 2.8956 38.9594 2.86799 45.2254C2.84039 51.4914 2.82659 57.785 2.82659 64.1061H22.1214V44.8114C24.3296 44.7838 26.5793 44.6181 28.8704 44.3145C31.1615 43.9833 33.3697 43.4864 35.4952 42.8239C37.6483 42.1338 39.6633 41.2505 41.5404 40.174C43.4174 39.0975 45.046 37.7863 46.4262 36.2405C47.8339 34.6947 48.9381 32.8867 49.7386 30.8164C50.5391 28.7462 50.9393 26.3723 50.9393 23.6948ZM29.7289 25.1025C29.7289 23.9287 29.3945 23.369 29.0084 23.0215L28.9808 22.9967L28.9538 22.9713C28.4916 22.5328 27.8241 22.2152 26.6759 22.2152C26.4179 22.2152 26.1415 22.231 25.8459 22.2652L25.5616 29.1889C25.9718 29.1384 26.365 29.0437 26.7452 28.9055L26.7576 28.9008L26.7703 28.8963C27.3919 28.6769 27.9076 28.3811 28.3429 28.0183C28.7888 27.6195 29.1219 27.1811 29.3648 26.6955L29.3728 26.6792L29.3813 26.663C29.598 26.2431 29.7289 25.7414 29.7289 25.1025ZM32.5554 25.1025C32.5554 26.1515 32.3346 27.1038 31.893 27.9595C31.4789 28.7876 30.913 29.5191 30.1954 30.154C29.4777 30.7612 28.6496 31.2305 27.7111 31.5617C26.8001 31.893 25.8478 32.0586 24.8541 32.0586H23.7362C23.3773 32.0586 23.0047 32.031 22.6182 31.9758L23.1151 19.8855C23.6672 19.7475 24.2468 19.6371 24.8541 19.5542C25.489 19.4438 26.0963 19.3886 26.6759 19.3886C28.4149 19.3886 29.8227 19.8993 30.8992 20.9206C32.0034 21.9143 32.5554 23.3083 32.5554 25.1025ZM53.7659 23.6948C53.7659 26.6509 53.3242 29.381 52.375 31.8358C51.4563 34.2116 50.1732 36.3241 48.516 38.1438L48.5157 38.1435C46.9288 39.9163 45.0669 41.41 42.9467 42.626C40.8899 43.8056 38.6915 44.7675 36.3578 45.5155L36.347 45.5191L36.3363 45.5224C34.0626 46.2311 31.7079 46.7603 29.2748 47.1121L29.2417 47.1165C27.7975 47.3079 26.3662 47.4467 24.948 47.5336V66.9327H0L0 64.1061C0 57.7809 0.0137833 51.4831 0.0414051 45.213C0.0690264 38.9429 0.11038 32.6176 0.16562 26.2373L0.165896 26.2265V26.2155C0.220723 22.8711 0.234439 19.5266 0.207025 16.1822C0.178978 12.7604 0.249213 9.31185 0.417363 5.83674L0.514251 3.83439L2.43628 3.26355C6.093 2.17797 9.75625 1.36195 13.4252 0.817337C17.1026 0.271471 20.8853 0 24.7713 0C27.0449 0 29.3159 0.191169 31.583 0.571942L32.0164 0.642331C34.1774 1.00753 36.2572 1.57321 38.2514 2.34242L38.2511 2.3427C40.405 3.16281 42.4083 4.20085 44.2529 5.46133H44.2527C46.1675 6.72358 47.8309 8.24519 49.2285 10.0239C50.6403 11.8208 51.7326 13.8533 52.5171 16.098L52.5952 16.3161C53.3914 18.5781 53.7659 21.0492 53.7659 23.6948Z" fill="black"/>
<path d="M95.497 26.1352L83.1284 56.6103C83.1284 56.6103 73.6115 82.3099 56.9187 82.8124C40.2259 83.3148 37.0883 56.8213 48.2906 64.7284C59.4929 72.6354 67.023 54.6221 67.023 54.6221L48.8502 27.5393L66.0659 24.5137C66.0659 24.5137 73.3295 38.5133 74.8554 38.5563C76.3813 38.5994 79.8512 25.4495 79.8512 25.4495L95.497 26.1352Z" fill="#0D83A1"/>
<path d="M75.7842 20.751L90.4941 21.3877L92.3281 21.4668L91.582 23.1445L78.1699 53.2744C78.1663 53.2844 78.1629 53.2965 78.1582 53.3096C78.1398 53.3604 78.1126 53.4342 78.0771 53.5293C78.0061 53.7199 77.901 53.9963 77.7627 54.3457C77.4861 55.0445 77.0754 56.0369 76.5381 57.2207C75.4653 59.5842 73.877 62.7305 71.8193 65.834C69.7675 68.9287 67.2114 72.0381 64.1865 74.2754C61.149 76.5221 57.5747 77.9323 53.5586 77.4707C49.5967 77.0152 46.1564 74.1197 43.8145 71.5801C42.6175 70.2821 41.6508 69.0137 40.9834 68.0713C40.649 67.5991 40.3877 67.2058 40.209 66.9287C40.1197 66.7902 40.0503 66.68 40.0029 66.6035C39.9794 66.5655 39.961 66.5357 39.9482 66.5146C39.9419 66.5041 39.9372 66.4953 39.9336 66.4893C39.9318 66.4863 39.9298 66.4842 39.9287 66.4824L39.9277 66.4805L39.9268 66.4795C39.9266 66.4792 39.9266 66.4785 41 65.8379L39.9268 66.4785L39.2295 65.3105L40.4522 64.7139L49.6162 60.25L50.4248 59.8564L51.0547 60.498C53.0532 62.532 54.4743 62.6775 55.4707 62.3398C56.6388 61.9439 57.7798 60.7221 58.8076 58.9385C59.8062 57.2056 60.5637 55.1788 61.0752 53.5557C61.3291 52.75 61.5181 52.0557 61.6436 51.5654C61.6684 51.4684 61.6892 51.379 61.709 51.2988L44.6445 25.1396L43.5176 23.4111L45.5713 23.2119L59.251 21.8887L60.1719 21.7998L60.5254 22.6533L60.5264 22.6543L60.5264 22.6553C60.5269 22.6565 60.5282 22.6585 60.5293 22.6611C60.5316 22.6665 60.5344 22.6754 60.5391 22.6865C60.5485 22.7091 60.563 22.7432 60.582 22.7881C60.6204 22.8784 60.6775 23.0126 60.752 23.1836C60.9008 23.5257 61.1184 24.016 61.3906 24.6055C61.9362 25.7869 62.6981 27.3559 63.5664 28.9199C64.4403 30.494 65.3967 32.0169 66.3271 33.1328C66.7928 33.6912 67.2205 34.1085 67.5947 34.3789C67.9805 34.6575 68.2088 34.7067 68.2998 34.708C68.3338 34.7085 68.5052 34.6929 68.835 34.416C69.1578 34.1448 69.5269 33.7095 69.9268 33.1074C70.7243 31.9064 71.5056 30.2516 72.2002 28.5303C72.8895 26.8221 73.4713 25.1051 73.8818 23.8105C74.0867 23.1645 74.2486 22.6263 74.3584 22.251C74.4133 22.0634 74.4554 21.9166 74.4834 21.8174C74.4974 21.7679 74.5077 21.73 74.5146 21.7051C74.5181 21.6928 74.5208 21.6837 74.5225 21.6777C74.5233 21.6748 74.5231 21.6722 74.5234 21.6709L74.5244 21.6699L74.7881 20.708L75.7842 20.751Z" fill="#FDD100" stroke="black" stroke-width="2.5"/>
<path d="M128.548 12.3631L126.115 30.7001C125.275 30.4683 124.435 30.309 123.595 30.2221C122.755 30.1352 121.914 30.0917 121.074 30.0917C118.931 30.0917 116.888 30.3814 114.948 30.9608C113.007 31.5112 111.283 32.3658 109.777 33.5245C108.299 34.6832 107.112 36.1317 106.214 37.8698C105.345 39.6079 104.91 41.6501 104.91 43.9966C104.91 45.5029 105.142 46.8065 105.605 47.9073C106.098 49.0081 106.778 49.9206 107.648 50.6448C108.517 51.369 109.545 51.905 110.733 52.2526C111.92 52.6002 113.224 52.774 114.643 52.774C115.715 52.774 116.831 52.6581 117.989 52.4264C119.148 52.1946 120.292 51.8905 121.422 51.5139C122.552 51.1373 123.653 50.7028 124.724 50.2103C125.796 49.7178 126.781 49.2109 127.679 48.6895L125.941 69.1122C124.811 69.6916 123.58 70.213 122.248 70.6765C120.944 71.111 119.597 71.5021 118.207 71.8497C116.816 72.1684 115.426 72.4146 114.035 72.5884C112.645 72.7622 111.312 72.8491 110.037 72.8491C106.358 72.8491 102.926 72.1684 99.7391 70.8069C96.5526 69.4454 93.7861 67.5769 91.4397 65.2015C89.0932 62.8261 87.2392 60.0306 85.8777 56.8151C84.5452 53.5707 83.8789 50.08 83.8789 46.343C83.8789 41.3894 84.5886 36.7255 86.0081 32.3513C87.4275 27.9481 89.5133 24.0953 92.2653 20.7929C95.0173 17.4905 98.4211 14.8833 102.477 12.9714C106.561 11.0595 111.254 10.1035 116.555 10.1035C118.554 10.1035 120.596 10.2628 122.682 10.5815C124.797 10.9001 126.752 11.494 128.548 12.3631Z" fill="#0D83A1"/>
<path d="M126.422 7.04066L124.138 24.2513C123.349 24.0338 122.561 23.8843 121.772 23.8027C120.984 23.7211 120.195 23.6803 119.407 23.6803C117.395 23.6803 115.478 23.9522 113.656 24.496C111.835 25.0126 110.217 25.8147 108.803 26.9022C107.416 27.9898 106.302 29.3492 105.459 30.9806C104.643 32.6119 104.235 34.5288 104.235 36.7311C104.235 38.1449 104.453 39.3684 104.888 40.4016C105.35 41.4348 105.989 42.2912 106.805 42.9709C107.62 43.6507 108.586 44.1537 109.7 44.4799C110.815 44.8062 112.039 44.9693 113.371 44.9693C114.377 44.9693 115.424 44.8606 116.511 44.6431C117.599 44.4255 118.673 44.1401 119.733 43.7866C120.793 43.4332 121.827 43.0253 122.833 42.5631C123.839 42.1009 124.763 41.6251 125.606 41.1357L123.975 60.3039C122.914 60.8477 121.759 61.3371 120.508 61.7721C119.284 62.18 118.02 62.547 116.715 62.8733C115.41 63.1724 114.105 63.4035 112.8 63.5666C111.495 63.7297 110.244 63.8113 109.048 63.8113C105.595 63.8113 102.373 63.1724 99.3821 61.8945C96.3913 60.6166 93.7947 58.8629 91.5924 56.6334C89.3901 54.4039 87.65 51.7802 86.3721 48.7622C85.1214 45.717 84.4961 42.4408 84.4961 38.9334C84.4961 34.284 85.1622 29.9066 86.4945 25.8011C87.8267 21.6684 89.7844 18.0522 92.3673 14.9527C94.9503 11.8531 98.145 9.40611 101.951 7.61163C105.785 5.81716 110.19 4.91992 115.165 4.91992C117.041 4.91992 118.958 5.06946 120.916 5.36854C122.901 5.66762 124.736 6.22499 126.422 7.04066Z" fill="#FDD100"/>
<path d="M104.238 36.732C104.238 34.5297 104.646 32.6129 105.462 30.9815C106.305 29.3502 107.419 27.9907 108.806 26.9032C110.22 25.8156 111.838 25.0135 113.659 24.497C115.481 23.9532 117.398 23.6813 119.41 23.6813C120.198 23.6813 120.987 23.7221 121.775 23.8036C122.564 23.8852 123.352 24.0347 124.141 24.2523L126.424 7.04162C124.739 6.22595 122.903 5.66857 120.919 5.36949C118.961 5.07041 117.044 4.92087 115.168 4.92087C110.193 4.92087 105.788 5.81811 101.954 7.61259C98.1479 9.40706 94.9532 11.8541 92.3702 14.9536C89.7873 18.0532 87.8297 21.6693 86.4974 25.802C85.1651 29.9076 84.499 34.285 84.499 38.9343C84.499 42.4417 85.1243 45.718 86.375 48.7631C87.6529 51.7811 89.393 54.4049 91.5953 56.6344C93.7976 58.8639 96.3942 60.6176 99.385 61.8954C102.376 63.1733 105.598 63.8123 109.051 63.8123C110.247 63.8123 111.498 63.7307 112.803 63.5676C114.108 63.4044 115.413 63.1733 116.718 62.8742C118.023 62.548 119.287 62.1809 120.511 61.7731C121.762 61.3381 122.917 60.8487 123.977 60.3049L125.609 41.1366C124.766 41.626 123.841 42.1018 122.835 42.5641C121.83 43.0263 120.796 43.4341 119.736 43.7876C118.676 44.141 117.602 44.4265 116.514 44.644C115.426 44.8615 114.38 44.9703 113.374 44.9703V42.1861C114.179 42.1861 115.042 42.0991 115.968 41.914C116.942 41.7193 117.904 41.4634 118.856 41.1461C119.821 40.8244 120.76 40.4537 121.673 40.0341C122.609 39.604 123.454 39.1685 124.211 38.729L128.836 36.043L126.621 62.0781L125.248 62.7823C124.061 63.3911 122.785 63.93 121.425 64.4028L121.408 64.4085L121.391 64.4145C120.097 64.8458 118.765 65.2324 117.393 65.5752L117.367 65.582L117.34 65.588C115.945 65.9076 114.548 66.1553 113.148 66.3302C111.74 66.5063 110.373 66.5964 109.051 66.5964C105.245 66.5964 101.649 65.8902 98.2912 64.4556C94.9812 63.0413 92.0802 61.0869 89.6146 58.5909C87.1533 56.0992 85.2201 53.1763 83.8111 49.8488L83.8054 49.8349L83.7997 49.8208C82.4023 46.4185 81.7148 42.7805 81.7148 38.9343C81.7148 34.0157 82.4202 29.3463 83.8492 24.9426C85.2824 20.4989 87.4044 16.5637 90.2313 13.1714C93.0852 9.74666 96.6097 7.05422 100.767 5.09434L100.774 5.09108C105.036 3.09591 109.856 2.13672 115.168 2.13672C117.193 2.13672 119.25 2.29798 121.339 2.61715L121.339 2.61742C123.579 2.95543 125.683 3.59006 127.637 4.53533L129.449 5.41218L126.48 27.7857L123.4 26.9361C122.756 26.7583 122.119 26.6383 121.489 26.5731C120.795 26.5013 120.102 26.4654 119.41 26.4654C117.652 26.4654 116.004 26.7025 114.456 27.1647L114.437 27.1702L114.419 27.1756C112.922 27.6 111.632 28.245 110.518 29.0987C109.467 29.9242 108.61 30.9592 107.946 32.239C107.363 33.4096 107.022 34.8799 107.022 36.732C107.022 37.8535 107.194 38.6858 107.447 39.2981C107.746 39.9537 108.129 40.4491 108.59 40.8329C109.086 41.246 109.702 41.5796 110.485 41.8087C111.312 42.0507 112.268 42.1861 113.374 42.1861V44.9703C112.041 44.9703 110.818 44.8071 109.703 44.4809C108.588 44.1546 107.623 43.6516 106.808 42.9719C105.992 42.2922 105.353 41.4357 104.891 40.4025C104.456 39.3693 104.238 38.1458 104.238 36.732Z" fill="black"/>
<path d="M171.598 45.4431C171.598 47.7214 171.378 49.9246 170.937 52.0527C170.496 54.1558 169.856 56.1336 169.016 57.9863C168.197 59.839 167.189 61.5415 165.992 63.0937C164.816 64.621 163.483 65.9354 161.992 67.037C160.522 68.1386 158.916 69.0023 157.173 69.6282C155.43 70.2291 153.582 70.5295 151.63 70.5295C149.74 70.5295 147.934 70.2416 146.212 69.6658C144.511 69.09 142.915 68.2888 141.425 67.2623C139.934 66.2108 138.579 64.959 137.362 63.5068C136.165 62.0297 135.136 60.4023 134.275 58.6248C133.435 56.8221 132.774 54.8943 132.291 52.8414C131.829 50.7884 131.598 48.6478 131.598 46.4195C131.598 44.2414 131.818 42.1133 132.259 40.0353C132.7 37.9322 133.33 35.9543 134.149 34.1016C134.989 32.2489 135.997 30.5465 137.173 28.9942C138.348 27.442 139.661 26.1025 141.11 24.9759C142.58 23.8492 144.165 22.973 145.866 22.3471C147.566 21.7212 149.362 21.4082 151.252 21.4082C154.296 21.4082 157.068 21.9715 159.567 23.0982C162.086 24.2248 164.228 25.8396 165.992 27.9427C167.777 30.0207 169.152 32.5494 170.118 35.5287C171.105 38.483 171.598 41.7878 171.598 45.4431ZM157.614 46.4195C157.614 45.343 157.477 44.304 157.204 43.3025C156.952 42.276 156.575 41.3747 156.071 40.5986C155.567 39.7974 154.937 39.159 154.181 38.6833C153.446 38.1826 152.595 37.9322 151.63 37.9322C150.643 37.9322 149.761 38.145 148.984 38.5706C148.207 38.9962 147.535 39.5846 146.968 40.3357C146.422 41.0617 146.002 41.9255 145.708 42.927C145.414 43.9034 145.267 44.9424 145.267 46.044C145.267 47.0955 145.393 48.147 145.645 49.1986C145.897 50.2501 146.275 51.2015 146.779 52.0527C147.283 52.9039 147.902 53.5924 148.637 54.1182C149.393 54.644 150.265 54.9069 151.252 54.9069C152.238 54.9069 153.12 54.6815 153.897 54.2309C154.695 53.7552 155.367 53.1293 155.913 52.3531C156.459 51.552 156.879 50.6382 157.173 49.6117C157.467 48.5852 157.614 47.5211 157.614 46.4195Z" fill="#0D83A1"/>
<path d="M166.24 41.5278C166.24 43.7144 166.028 45.8288 165.605 47.8712C165.182 49.8896 164.568 51.7878 163.762 53.5658C162.976 55.3439 162.009 56.9778 160.861 58.4676C159.733 59.9333 158.454 61.1947 157.023 62.252C155.613 63.3092 154.072 64.1382 152.4 64.7389C150.728 65.3155 148.955 65.6039 147.082 65.6039C145.269 65.6039 143.536 65.3275 141.884 64.7749C140.253 64.2223 138.722 63.4534 137.291 62.4682C135.861 61.459 134.562 60.2576 133.393 58.864C132.245 57.4464 131.258 55.8845 130.432 54.1786C129.626 52.4485 128.991 50.5984 128.528 48.6281C128.085 46.6578 127.863 44.6034 127.863 42.4649C127.863 40.3745 128.075 38.3321 128.498 36.3378C128.921 34.3194 129.525 32.4212 130.311 30.6431C131.117 28.8651 132.084 27.2312 133.212 25.7414C134.34 24.2517 135.599 22.9662 136.989 21.8849C138.399 20.8037 139.92 19.9627 141.552 19.362C143.184 18.7613 144.906 18.4609 146.719 18.4609C149.64 18.4609 152.299 19.0016 154.697 20.0828C157.114 21.1641 159.169 22.7139 160.861 24.7322C162.573 26.7266 163.893 29.1534 164.82 32.0127C165.766 34.848 166.24 38.0197 166.24 41.5278ZM152.823 42.4649C152.823 41.4317 152.692 40.4345 152.43 39.4734C152.189 38.4883 151.826 37.6233 151.343 36.8784C150.859 36.1095 150.255 35.4968 149.529 35.0403C148.824 34.5597 148.008 34.3194 147.082 34.3194C146.135 34.3194 145.289 34.5237 144.544 34.9321C143.798 35.3406 143.153 35.9053 142.61 36.6261C142.086 37.3229 141.683 38.1519 141.401 39.113C141.119 40.0501 140.978 41.0473 140.978 42.1045C140.978 43.1137 141.099 44.1228 141.34 45.132C141.582 46.1412 141.945 47.0543 142.428 47.8712C142.912 48.6882 143.506 49.3489 144.211 49.8535C144.936 50.3581 145.772 50.6104 146.719 50.6104C147.666 50.6104 148.512 50.3941 149.257 49.9616C150.023 49.5051 150.668 48.9044 151.191 48.1595C151.715 47.3906 152.118 46.5136 152.4 45.5285C152.682 44.5433 152.823 43.5221 152.823 42.4649Z" fill="#FDD100"/>
<path d="M166.24 41.5273C166.24 38.0193 165.767 34.8476 164.82 32.0123C163.893 29.1529 162.574 26.7261 160.862 24.7318C159.169 22.7134 157.114 21.1636 154.697 20.0824C152.3 19.0011 149.641 18.4605 146.72 18.4605C144.906 18.4605 143.184 18.7608 141.552 19.3615C139.921 19.9622 138.4 20.8032 136.989 21.8845C135.599 22.9657 134.34 24.2512 133.212 25.7409C132.084 27.2307 131.117 28.8646 130.311 30.6427C129.526 32.4207 128.921 34.3189 128.498 36.3373C128.075 38.3316 127.864 40.374 127.864 42.4644C127.864 44.6029 128.085 46.6573 128.528 48.6276C128.992 50.5979 129.626 52.4481 130.432 54.1781C131.258 55.8841 132.245 57.4459 133.394 58.8635C134.562 60.2572 135.861 61.4586 137.292 62.4677C138.722 63.4529 140.253 64.2218 141.885 64.7744C143.537 65.3271 145.269 65.6034 147.082 65.6034C148.956 65.6034 150.728 65.3151 152.401 64.7384C154.073 64.1377 155.614 63.3087 157.024 62.2515C158.454 61.1943 159.733 59.9328 160.862 58.4671C162.01 56.9773 162.977 55.3434 163.762 53.5654C164.568 51.7873 165.183 49.8891 165.606 47.8707C166.029 45.8284 166.24 43.7139 166.24 41.5273ZM140.978 42.104C140.978 41.0468 141.119 40.0496 141.401 39.1125C141.683 38.1514 142.086 37.3224 142.61 36.6256C143.154 35.9048 143.799 35.3401 144.544 34.9317C145.289 34.5232 146.135 34.3189 147.082 34.3189C148.009 34.3189 148.825 34.5592 149.53 35.0398C150.255 35.4963 150.859 36.109 151.343 36.8779C151.826 37.6228 152.189 38.4878 152.431 39.4729C152.693 40.4341 152.824 41.4312 152.824 42.4644C152.824 43.5217 152.683 44.5429 152.401 45.528C152.118 46.5132 151.716 47.3902 151.192 48.1591C150.668 48.9039 150.023 49.5046 149.258 49.9612C148.512 50.3937 147.666 50.6099 146.72 50.6099V48.1495C147.394 48.1495 147.922 47.998 148.347 47.7532C148.863 47.4436 149.273 47.0551 149.602 46.5903C149.959 46.062 150.243 45.4495 150.448 44.7329C150.656 44.0078 150.761 43.2555 150.761 42.4644C150.761 41.6836 150.662 40.9434 150.469 40.2334L150.46 40.1988L150.451 40.164C150.275 39.4477 150.024 38.8648 149.712 38.3842L149.702 38.3693L149.693 38.3542C149.395 37.8815 149.027 37.5056 148.567 37.2158L148.536 37.1965L148.506 37.1761C148.155 36.9365 147.701 36.7794 147.082 36.7794C146.387 36.7794 145.842 36.9282 145.405 37.1675C144.914 37.4366 144.499 37.8002 144.146 38.2679L144.146 38.2682C143.819 38.7029 143.548 39.2433 143.348 39.9254L143.346 39.9345L143.343 39.9439C143.146 40.5982 143.041 41.3125 143.041 42.104C143.041 42.8756 143.133 43.6574 143.324 44.4556C143.506 45.2122 143.771 45.8719 144.114 46.4519C144.432 46.9899 144.812 47.4102 145.26 47.734C145.63 47.9884 146.096 48.1495 146.72 48.1495V50.6099C145.773 50.6099 144.937 50.3576 144.211 49.853C143.506 49.3485 142.912 48.6877 142.429 47.8707C141.945 47.0538 141.583 46.1407 141.341 45.1315C141.099 44.1224 140.978 43.1132 140.978 42.104ZM168.303 41.5273C168.303 43.9049 168.073 46.2179 167.608 48.4609L167.608 48.4642L167.607 48.4676C167.145 50.6711 166.472 52.7546 165.587 54.7122L165.587 54.7125C164.718 56.6791 163.648 58.4863 162.381 60.1308L162.381 60.131C161.127 61.7598 159.706 63.1617 158.121 64.3345L158.122 64.3347C156.547 65.5149 154.836 66.4331 152.995 67.0943L152.985 67.0982L152.973 67.102C151.102 67.7476 149.135 68.0639 147.082 68.0639C145.092 68.0639 143.171 67.7602 141.328 67.1436L141.324 67.1424L141.321 67.1414C139.53 66.5349 137.842 65.6879 136.26 64.5985L136.251 64.5921L136.241 64.5853C134.663 63.4717 133.226 62.1437 131.935 60.6034L131.91 60.5731C130.645 59.0112 129.556 57.2885 128.646 55.4086L128.637 55.3908L128.629 55.373C127.742 53.4697 127.047 51.4407 126.542 49.292L126.539 49.2788L126.536 49.2651C126.044 47.0771 125.801 44.8078 125.801 42.4644C125.801 40.1738 126.033 37.9285 126.498 35.7337C126.96 33.5334 127.622 31.452 128.486 29.4956L128.491 29.484L128.497 29.4727C129.38 27.5232 130.442 25.7281 131.681 24.0917C132.927 22.4468 134.321 21.0223 135.863 19.8236L135.868 19.8193L135.874 19.8147C137.445 18.6104 139.137 17.6757 140.944 17.0104C142.785 16.3328 144.713 16 146.72 16C149.853 16 152.762 16.5802 155.421 17.7786H155.421C158.093 18.9733 160.404 20.7061 162.32 22.9919H162.32C164.246 25.241 165.715 27.9576 166.736 31.1018L166.834 31.3995C167.825 34.485 168.303 37.8715 168.303 41.5273Z" fill="black"/>
<ellipse cx="147.095" cy="43.0388" rx="8.1186" ry="9.68338" fill="#FDD100"/>
<path d="M155.282 34.505L155.282 37.7717C155.282 40.3043 153.134 42.4382 150.681 42.438L143.319 42.4375C141.302 42.4373 139.632 44.1571 139.632 46.1758L139.631 53.1811C139.631 55.1736 141.37 56.3481 143.318 56.9199C145.649 57.6069 147.886 57.7277 150.675 56.9204C152.529 56.3856 154.362 55.3055 154.362 53.1821L154.362 50.377L146.999 50.3765L147 49.4431L158.043 49.4439C160.186 49.444 160.984 47.9549 161.73 45.716C162.497 43.4142 162.466 41.1962 161.731 38.2389C161.2 36.1099 160.187 34.5107 158.044 34.5105L155.282 34.505ZM151.143 52.2486C151.904 52.2486 152.524 52.8726 152.524 53.6434C152.524 54.4192 151.904 55.0484 151.143 55.0484C150.381 55.0483 149.761 54.4139 149.761 53.6432C149.756 52.8724 150.381 52.2485 151.143 52.2486Z" fill="#E2242B"/>
<path d="M146.845 26.6458C145.584 26.651 144.382 26.761 143.326 26.9444C140.207 27.4948 139.64 28.643 139.639 30.7666L139.639 33.5719L147.007 33.5724L147.007 34.5057L136.872 34.505C134.729 34.5048 132.854 35.7893 132.271 38.2327C131.593 41.0379 131.567 42.784 132.271 45.7099C132.79 47.8859 134.045 49.4381 136.188 49.4383L138.719 49.4385L138.719 46.0774C138.719 43.6496 140.825 41.5052 143.32 41.5054L150.677 41.5059C152.725 41.5061 154.364 39.823 154.364 37.7676L154.364 30.7676C154.365 28.7751 152.679 27.2754 150.678 26.9449C149.413 26.7351 148.1 26.6407 146.845 26.6458ZM142.859 28.9002C143.62 28.9002 144.24 29.5347 144.24 30.3055C144.24 31.0763 143.62 31.7002 142.858 31.7002C142.097 31.7001 141.477 31.0761 141.477 30.3053C141.472 29.5346 142.092 28.9001 142.859 28.9002Z" fill="black"/>
<path d="M213.97 55.4248C213.97 57.8202 213.938 60.1945 213.874 62.5475C213.832 64.8793 213.758 67.2324 213.652 69.6066L195.336 69.2886C195.972 65.5365 196.523 61.795 196.99 58.064C197.456 54.3119 197.689 50.528 197.689 46.7123C197.689 46.4367 197.679 45.9915 197.657 45.3768C197.636 44.762 197.594 44.0731 197.53 43.3099C197.467 42.5256 197.371 41.7306 197.244 40.9251C197.138 40.0983 196.979 39.3458 196.767 38.6674C196.576 37.9891 196.332 37.4379 196.036 37.014C195.76 36.5688 195.421 36.3462 195.018 36.3462C194.297 36.3462 193.683 36.5582 193.174 36.9822C192.686 37.4061 192.273 37.9573 191.934 38.6357C191.616 39.2928 191.361 40.0347 191.171 40.8615C190.98 41.6882 190.831 42.515 190.726 43.3417C190.641 44.1684 190.577 44.9528 190.535 45.6947C190.514 46.4155 190.503 47.009 190.503 47.4754C190.397 51.2275 190.312 54.9585 190.249 58.6682C190.185 62.3567 190.1 66.0876 189.994 69.861L173.777 70.5605C174.201 63.0775 174.604 55.6368 174.986 48.2385C175.388 40.8403 175.706 33.3996 175.94 25.9166L190.948 25.1534L190.821 30.2411C191.414 29.5203 192.05 28.842 192.729 28.206C193.428 27.5701 194.17 27.0295 194.955 26.5843C195.739 26.118 196.566 25.7576 197.435 25.5032C198.325 25.2276 199.258 25.0898 200.233 25.0898C202.035 25.0898 203.614 25.3866 204.971 25.9802C206.328 26.5737 207.493 27.3793 208.469 28.3968C209.444 29.4143 210.26 30.6226 210.917 32.0217C211.574 33.3996 212.104 34.8729 212.507 36.4416C212.91 38.0103 213.217 39.6532 213.429 41.3703C213.641 43.0661 213.779 44.7408 213.842 46.3943C213.927 48.0478 213.97 49.6482 213.97 51.1957C213.97 52.7432 213.97 54.1529 213.97 55.4248Z" fill="#0D83A1"/>
<path d="M209.001 48.5576C209.001 50.9531 208.969 53.3273 208.905 55.6803C208.863 58.0121 208.789 60.3652 208.683 62.7394L190.367 62.4214C191.003 58.6693 191.555 54.9278 192.021 51.1968C192.487 47.4447 192.72 43.6608 192.72 39.8451C192.72 39.5695 192.71 39.1243 192.689 38.5096C192.667 37.8948 192.625 37.2059 192.561 36.4427C192.498 35.6584 192.402 34.8634 192.275 34.0579C192.169 33.2312 192.01 32.4786 191.798 31.8003C191.608 31.1219 191.364 30.5708 191.067 30.1468C190.791 29.7016 190.452 29.479 190.049 29.479C189.329 29.479 188.714 29.691 188.205 30.115C187.718 30.539 187.304 31.0901 186.965 31.7685C186.647 32.4256 186.393 33.1676 186.202 33.9943C186.011 34.821 185.863 35.6478 185.757 36.4745C185.672 37.3013 185.608 38.0856 185.566 38.8275C185.545 39.5483 185.534 40.1418 185.534 40.6082C185.428 44.3603 185.343 48.0913 185.28 51.801C185.216 55.4895 185.131 59.2205 185.025 62.9938L168.809 63.6933C169.233 56.2103 169.635 48.7696 170.017 41.3714C170.42 33.9731 170.738 26.5324 170.971 19.0494L185.979 18.2863L185.852 23.3739C186.446 22.6531 187.082 21.9748 187.76 21.3388C188.46 20.7029 189.201 20.1623 189.986 19.7171C190.77 19.2508 191.597 18.8904 192.466 18.636C193.356 18.3604 194.289 18.2227 195.264 18.2227C197.066 18.2227 198.645 18.5194 200.002 19.113C201.359 19.7065 202.525 20.5121 203.5 21.5296C204.475 22.5471 205.291 23.7555 205.948 25.1545C206.605 26.5324 207.135 28.0057 207.538 29.5744C207.941 31.1431 208.248 32.786 208.46 34.5031C208.672 36.1989 208.81 37.8736 208.874 39.5271C208.958 41.1806 209.001 42.7811 209.001 44.3285C209.001 45.876 209.001 47.2857 209.001 48.5576Z" fill="#FDD100"/>
<path d="M190.552 39.8457C190.552 39.6105 190.543 39.1975 190.521 38.585C190.502 38.0127 190.462 37.3597 190.4 36.6235L190.4 36.6189C190.341 35.8911 190.252 35.1505 190.133 34.3971L190.128 34.3659L190.124 34.3345C190.032 33.6128 189.897 32.9868 189.729 32.4483L189.719 32.4186L189.711 32.3885C189.651 32.1745 189.588 31.9966 189.528 31.8497C189.324 32.0516 189.114 32.3325 188.916 32.7258C188.681 33.2134 188.478 33.7949 188.319 34.4831C188.147 35.2316 188.012 35.9782 187.916 36.723C187.837 37.4984 187.777 38.2299 187.737 38.9181C187.717 39.6156 187.707 40.1773 187.707 40.6089V40.6396L187.706 40.6701C187.6 44.4143 187.516 48.1373 187.452 51.8389C187.389 55.5355 187.304 59.2745 187.197 63.0555L187.141 65.0761L166.508 65.966L166.643 63.5712C167.067 56.0918 167.47 48.6548 167.851 41.2603V41.2571L167.852 41.2539C168.253 33.8727 168.571 26.4488 168.803 18.9824L168.866 16.9836L188.21 16L188.153 18.2969C188.403 18.133 188.657 17.977 188.916 17.8298C189.845 17.2818 190.827 16.8552 191.859 16.5533C192.956 16.2171 194.095 16.0526 195.266 16.0526C197.304 16.0526 199.191 16.3884 200.874 17.125C202.48 17.8274 203.886 18.7938 205.069 20.0283C206.22 21.2288 207.163 22.6336 207.91 24.2208L208.043 24.5052C208.702 25.9337 209.235 27.4448 209.643 29.0351C210.07 30.699 210.394 32.433 210.616 34.2353C210.835 35.9812 210.977 37.7083 211.044 39.4167L211.074 40.0471C211.14 41.5131 211.174 42.9405 211.174 44.3292V48.5583C211.174 50.9729 211.142 53.3668 211.078 55.7397C211.035 58.0847 210.96 60.4505 210.854 62.8369L210.759 64.947L187.808 64.5487L188.229 62.0593C188.86 58.3379 189.407 54.6275 189.869 50.9283C190.324 47.2662 190.552 43.5722 190.552 39.8457ZM192.723 39.8457C192.723 43.6614 192.489 47.4454 192.023 51.1975C191.557 54.9284 191.006 58.6699 190.37 62.4221L208.685 62.74C208.791 60.3658 208.865 58.0128 208.908 55.681C208.971 53.3279 209.003 50.9537 209.003 48.5583V44.3292C209.003 42.7817 208.961 41.1812 208.876 39.5277C208.812 37.8743 208.674 36.1996 208.463 34.5037C208.251 32.7866 207.943 31.1437 207.54 29.5751C207.138 28.0064 206.608 26.5331 205.95 25.1552C205.293 23.7561 204.477 22.5478 203.502 21.5303C202.527 20.5127 201.361 19.7072 200.004 19.1136C198.648 18.5201 197.068 18.2233 195.266 18.2233C194.291 18.2233 193.359 18.3611 192.468 18.6367C191.599 18.891 190.772 19.2514 189.988 19.7178C189.204 20.163 188.462 20.7035 187.762 21.3395C187.084 21.9754 186.448 22.6538 185.854 23.3745L185.982 18.2869L170.973 19.05C170.74 26.5331 170.422 33.9737 170.019 41.372C169.638 48.7703 169.235 56.2109 168.811 63.694L185.028 62.9944C185.134 59.2211 185.218 55.4902 185.282 51.8016C185.346 48.0919 185.43 44.361 185.536 40.6089C185.536 40.1425 185.547 39.5489 185.568 38.8282C185.611 38.0862 185.674 37.3019 185.759 36.4752C185.865 35.6484 186.013 34.8217 186.204 33.9949C186.395 33.1682 186.649 32.4263 186.967 31.7691C187.306 31.0908 187.72 30.5396 188.207 30.1156C188.716 29.6917 189.331 29.4797 190.052 29.4797C190.454 29.4797 190.794 29.7023 191.069 30.1474C191.366 30.5714 191.61 31.1225 191.801 31.8009C192.013 32.4792 192.171 33.2318 192.277 34.0585C192.405 34.8641 192.5 35.659 192.564 36.4434C192.627 37.2065 192.67 37.8955 192.691 38.5102C192.712 39.125 192.723 39.5701 192.723 39.8457Z" fill="black"/>
<path d="M224.309 12.2332C224.869 1.39361 247.277 7.17071 261.949 14.2977C261.736 19.0148 260.588 28.8701 260.588 28.8701C260.588 28.8701 244.543 23.0574 243.253 28.5612C242.782 30.5742 243.253 33.8556 243.253 33.8556L259.69 34.0838L258.851 47.1104L244.143 47.5312L244.227 70.7269L222.964 71.1477L223.459 49.4232L213.91 49.8201V31.0326H223.879L224.309 12.2332Z" fill="#0D83A1"/>
<path d="M221.212 11.4815C220.812 1.08611 243.817 4.78902 257.594 11.4815C257.436 13.9543 257.29 16.4011 257.159 18.8212C257.027 21.2414 256.857 23.6881 256.647 26.1609C256.647 26.1609 240.775 20.5198 238.942 26.8005C238.398 28.6646 238.942 31.773 238.942 31.773L254.436 32.0012L253.648 44.2341L239.836 44.6288L239.915 66.4099L219.948 66.8046L220.413 46.4045L211.449 46.7764V29.1338H220.808L221.212 11.4815Z" fill="#FDD100"/>
<path d="M237.688 24.9137C240.803 19.0875 254.583 24.0373 254.583 24.0373C254.721 22.2441 254.839 20.4652 254.935 18.7005C255.04 16.7651 255.156 14.8131 255.278 12.8451C249.179 9.99881 245.495 9.15322 240.075 7.88281C234.654 6.6124 223.211 4.93452 223.405 12.9299L222.985 31.3607H213.676V44.4548L222.694 44.0808L222.226 64.5309L237.68 64.2253L237.601 42.465L251.555 42.0659L252.061 34.2281L236.715 33.9999C236.715 33.9999 235.974 28.1216 237.688 24.9137ZM238.942 31.773L254.436 32.0012L253.648 44.2341L239.836 44.6288L239.915 66.4099L219.948 66.8046L220.413 46.4045L211.449 46.7764V29.1338H220.808L221.212 11.4815C220.812 1.08611 243.817 4.78902 257.594 11.4815L257.367 15.1709C257.294 16.3943 257.225 17.6111 257.159 18.8212L257.053 20.6415C256.94 22.4665 256.805 24.3064 256.647 26.1609C256.647 26.1609 241.172 21.2061 239.339 27.4867C238.795 29.3508 238.942 31.773 238.942 31.773Z" fill="black"/>
<path d="M126.653 72.5148L262.239 70.0808L256.8 94.0403L119.587 95.917L126.653 72.5148Z" fill="black"/>
<path d="M120.281 69.338L254.336 68.4763L249.191 89.9289L113.522 90.2744L120.281 69.338Z" fill="#FDD100"/>
<path d="M243.74 81.0642C243.736 81.5712 243.644 82.0318 243.462 82.446C243.28 82.8561 243.03 83.2075 242.713 83.5003C242.399 83.7889 242.025 84.0126 241.592 84.1715C241.158 84.3305 240.69 84.4081 240.188 84.4044C239.776 84.4014 239.405 84.3426 239.073 84.228C238.746 84.1134 238.452 83.9554 238.191 83.754C237.935 83.5527 237.715 83.3142 237.53 83.0386C237.345 82.763 237.191 82.4647 237.069 82.1438C236.95 81.823 236.864 81.4836 236.808 81.1258C236.752 80.7681 236.726 80.4063 236.729 80.0406C236.732 79.5918 236.768 79.1558 236.838 78.7324C236.908 78.3049 237.012 77.9046 237.152 77.5316C237.296 77.1586 237.479 76.8151 237.702 76.5008C237.924 76.1866 238.188 75.9184 238.493 75.6963C238.798 75.4741 239.146 75.3021 239.538 75.1803C239.934 75.0543 240.377 74.9931 240.867 74.9967C241.046 74.998 241.229 75.0077 241.415 75.0257C241.602 75.0395 241.789 75.0658 241.976 75.1045C242.163 75.1433 242.343 75.1945 242.517 75.2581C242.695 75.3217 242.863 75.4019 243.02 75.4986L242.815 77.9532C242.521 77.8056 242.202 77.6931 241.858 77.6158C241.518 77.5344 241.185 77.4925 240.861 77.4901C240.604 77.4882 240.381 77.5261 240.194 77.6037C240.006 77.6771 239.847 77.784 239.717 77.9243C239.588 78.0647 239.485 78.2343 239.408 78.4332C239.336 78.628 239.289 78.8458 239.266 79.0867C239.542 78.9308 239.836 78.8083 240.148 78.7191C240.46 78.63 240.779 78.5866 241.103 78.589C241.468 78.5916 241.813 78.6502 242.136 78.7648C242.459 78.8794 242.739 79.0435 242.974 79.2571C243.214 79.4708 243.401 79.7298 243.536 80.0342C243.675 80.3386 243.743 80.6819 243.74 81.0642ZM241.37 81.2339C241.371 81.1051 241.343 80.9906 241.285 80.8905C241.232 80.7862 241.16 80.6984 241.069 80.6271C240.982 80.5516 240.881 80.4948 240.765 80.4566C240.649 80.4142 240.533 80.3925 240.416 80.3917C240.3 80.3908 240.186 80.4108 240.073 80.4515C239.961 80.4881 239.858 80.5434 239.766 80.6176C239.679 80.6876 239.605 80.7743 239.546 80.8778C239.492 80.9771 239.464 81.0912 239.463 81.22C239.462 81.3447 239.488 81.4592 239.541 81.5634C239.599 81.6636 239.671 81.7493 239.758 81.8206C239.849 81.8919 239.95 81.9487 240.062 81.9911C240.174 82.0293 240.288 82.0489 240.404 82.0497C240.521 82.0506 240.637 82.0327 240.754 81.9962C240.87 81.9555 240.973 81.9001 241.06 81.8301C241.152 81.7601 241.226 81.6755 241.28 81.5761C241.339 81.4727 241.369 81.3586 241.37 81.2339Z" fill="black"/>
<path d="M235.017 78.4536C235.014 78.786 234.952 79.1035 234.829 79.4059C234.706 79.7043 234.544 79.9857 234.343 80.2502C234.146 80.5105 233.92 80.752 233.664 80.9745C233.414 81.193 233.159 81.3906 232.9 81.5674L234.869 81.5817L234.701 84.1737L228.868 83.9316L228.885 81.6628C229.105 81.5896 229.337 81.5019 229.578 81.3998C229.824 81.2935 230.064 81.1727 230.298 81.0372C230.536 80.9018 230.759 80.7497 230.968 80.5809C231.181 80.412 231.368 80.2285 231.527 80.0301C231.691 79.8277 231.819 79.6084 231.912 79.3722C232.009 79.136 232.059 78.8808 232.061 78.6066C232.062 78.4487 232.034 78.3092 231.977 78.1883C231.924 78.0674 231.848 77.9671 231.748 77.8874C231.649 77.8036 231.533 77.7425 231.401 77.7041C231.272 77.6616 231.133 77.6398 230.983 77.6387C230.859 77.6378 230.732 77.6514 230.603 77.6796C230.474 77.7036 230.347 77.7401 230.222 77.789C230.097 77.838 229.978 77.8994 229.865 77.9734C229.757 78.0433 229.658 78.1236 229.57 78.2144L229.04 75.767C229.195 75.6143 229.372 75.4868 229.572 75.3844C229.773 75.2819 229.983 75.2004 230.204 75.1396C230.425 75.0748 230.649 75.0286 230.878 75.0012C231.107 74.9738 231.331 74.9609 231.552 74.9625C232.042 74.966 232.498 75.0587 232.921 75.2405C233.343 75.4181 233.709 75.6639 234.019 75.9778C234.332 76.2876 234.577 76.6551 234.753 77.0803C234.932 77.5055 235.02 77.9632 235.017 78.4536Z" fill="black"/>
<path d="M227.227 79.9512C227.224 80.3169 227.18 80.6802 227.094 81.0411C227.013 81.4021 226.894 81.7482 226.738 82.0795C226.581 82.4108 226.39 82.719 226.164 83.0041C225.941 83.2892 225.686 83.5367 225.398 83.7466C225.109 83.9564 224.792 84.1203 224.447 84.2383C224.105 84.3563 223.737 84.4139 223.342 84.411C222.943 84.4081 222.572 84.3451 222.228 84.2221C221.884 84.0991 221.569 83.9306 221.284 83.7165C221.003 83.5026 220.751 83.2514 220.529 82.963C220.306 82.6746 220.12 82.3637 219.968 82.0301C219.817 81.6966 219.701 81.3487 219.621 80.9866C219.544 80.6203 219.508 80.2564 219.51 79.8949C219.513 79.5334 219.555 79.1701 219.637 78.805C219.722 78.4399 219.843 78.0917 219.999 77.7604C220.156 77.4291 220.347 77.1209 220.573 76.8358C220.8 76.5465 221.055 76.297 221.339 76.0871C221.628 75.8773 221.945 75.7133 222.29 75.5953C222.64 75.4774 223.013 75.4198 223.408 75.4227C223.802 75.4256 224.17 75.4885 224.51 75.6115C224.854 75.7346 225.168 75.9031 225.453 76.1171C225.739 76.3311 225.99 76.5844 226.208 76.8769C226.431 77.1652 226.617 77.4762 226.769 77.8098C226.92 78.1433 227.034 78.4932 227.11 78.8595C227.191 79.2258 227.229 79.5897 227.227 79.9512ZM224.595 80.119C224.596 79.9362 224.573 79.7324 224.525 79.5076C224.477 79.2829 224.401 79.0724 224.299 78.8764C224.196 78.6803 224.064 78.5152 223.903 78.381C223.742 78.2469 223.55 78.179 223.325 78.1773C223.097 78.1757 222.901 78.2407 222.738 78.3725C222.575 78.5043 222.438 78.6675 222.329 78.862C222.224 79.0566 222.145 79.2658 222.094 79.4899C222.042 79.7139 222.016 79.9173 222.015 80.1002C222.013 80.283 222.037 80.4868 222.085 80.7116C222.133 80.9363 222.208 81.1468 222.311 81.3428C222.418 81.5389 222.551 81.704 222.712 81.8382C222.874 81.9724 223.068 82.0403 223.297 82.0419C223.521 82.0436 223.715 81.9785 223.878 81.8467C224.041 81.7149 224.175 81.5517 224.281 81.3572C224.386 81.1626 224.464 80.9534 224.516 80.7293C224.567 80.5053 224.594 80.3019 224.595 80.119Z" fill="black"/>
<path d="M217.837 78.5512C217.835 78.8837 217.772 79.2011 217.649 79.5036C217.527 79.8019 217.365 80.0833 217.163 80.3478C216.966 80.6082 216.74 80.8496 216.485 81.0722C216.234 81.2906 215.979 81.4882 215.72 81.665L217.69 81.6794L217.521 84.2713L211.688 84.0293L211.705 81.7604C211.926 81.6872 212.157 81.5996 212.399 81.4974C212.645 81.3912 212.885 81.2703 213.118 81.1349C213.356 80.9995 213.58 80.8474 213.789 80.6785C214.002 80.5097 214.188 80.3261 214.347 80.1278C214.511 79.9254 214.639 79.7061 214.732 79.4699C214.83 79.2337 214.879 78.9785 214.881 78.7042C214.883 78.5463 214.854 78.4069 214.797 78.286C214.744 78.1651 214.668 78.0648 214.569 77.9851C214.47 77.9012 214.354 77.8401 214.221 77.8018C214.092 77.7593 213.953 77.7375 213.804 77.7364C213.679 77.7355 213.552 77.7491 213.423 77.7773C213.294 77.8012 213.167 77.8377 213.042 77.8867C212.917 77.9356 212.798 77.9971 212.686 78.0711C212.577 78.1409 212.479 78.2213 212.391 78.312L211.86 75.8646C212.015 75.712 212.193 75.5845 212.393 75.482C212.593 75.3796 212.803 75.298 213.024 75.2373C213.245 75.1724 213.47 75.1263 213.698 75.0988C213.927 75.0714 214.152 75.0585 214.372 75.0601C214.862 75.0637 215.319 75.1564 215.741 75.3381C216.164 75.5158 216.53 75.7615 216.839 76.0755C217.153 76.3853 217.397 76.7528 217.573 77.1779C217.753 77.6031 217.841 78.0609 217.837 78.5512Z" fill="black"/>
<path d="M206.68 79.2154C206.675 79.7972 206.597 80.3182 206.444 80.7783C206.291 81.2385 206.078 81.6463 205.805 82.0017C205.537 82.3529 205.217 82.6519 204.845 82.8985C204.473 83.1452 204.067 83.3479 203.625 83.5068C203.183 83.6614 202.713 83.7744 202.214 83.8455C201.719 83.9167 201.209 83.9504 200.686 83.9466C200.491 83.9452 200.299 83.9396 200.113 83.9299C199.926 83.9161 199.735 83.8981 199.539 83.8759L199.773 75.7615C200.231 75.6194 200.702 75.521 201.184 75.4664C201.671 75.4076 202.153 75.3799 202.631 75.3834C203.225 75.3878 203.771 75.4749 204.268 75.6447C204.766 75.8146 205.194 76.0629 205.553 76.3896C205.913 76.7123 206.19 77.1111 206.386 77.5863C206.586 78.0574 206.684 78.6004 206.68 79.2154ZM202.424 81.5781C202.673 81.5425 202.9 81.4693 203.105 81.3586C203.313 81.2438 203.493 81.1038 203.644 80.9387C203.795 80.7694 203.91 80.5791 203.991 80.3677C204.076 80.1522 204.119 79.924 204.121 79.683C204.122 79.4461 204.099 79.2257 204.051 79.0217C204.002 78.8136 203.922 78.6343 203.811 78.4839C203.7 78.3293 203.554 78.2077 203.371 78.1191C203.189 78.0264 202.965 77.9749 202.699 77.9646L202.424 81.5781Z" fill="black"/>
<path d="M198.176 83.5604L195.081 83.9368L194.717 82.5253L193.296 82.515L192.974 83.9214L189.798 83.5865L192.339 75.302L195.806 75.1528L198.176 83.5604ZM194.507 80.6163L194.049 78.4437L193.572 80.6095L194.507 80.6163Z" fill="black"/>
<path d="M188.716 81.8105C188.714 82.1554 188.647 82.4521 188.517 82.7004C188.39 82.9489 188.22 83.1596 188.007 83.3326C187.794 83.5055 187.548 83.6471 187.268 83.7573C186.993 83.8633 186.706 83.9464 186.406 84.0066C186.107 84.0667 185.805 84.1061 185.502 84.1246C185.202 84.1432 184.922 84.1516 184.66 84.1497C184.402 84.1478 184.134 84.1354 183.856 84.1126C183.582 84.094 183.308 84.0608 183.034 84.0131C182.76 83.9654 182.49 83.9032 182.225 83.8265C181.96 83.7456 181.709 83.6461 181.473 83.528L181.519 75.4995C181.752 75.4056 182 75.3223 182.263 75.2494C182.525 75.1723 182.791 75.1099 183.062 75.062C183.337 75.0099 183.609 74.9725 183.879 74.9495C184.15 74.9224 184.411 74.9097 184.665 74.9116C184.96 74.9137 185.257 74.9346 185.556 74.9742C185.859 75.0138 186.149 75.0783 186.427 75.1676C186.705 75.2568 186.964 75.373 187.204 75.5161C187.444 75.655 187.652 75.8269 187.83 76.0318C188.011 76.2367 188.151 76.4746 188.248 76.7455C188.35 77.0163 188.4 77.3284 188.397 77.6816C188.396 77.9143 188.361 78.1322 188.293 78.3353C188.225 78.5385 188.128 78.7206 188.002 78.8818C187.876 79.0429 187.724 79.181 187.544 79.2961C187.365 79.407 187.162 79.4886 186.938 79.541C187.207 79.6136 187.452 79.7193 187.671 79.858C187.894 79.9968 188.082 80.1644 188.234 80.3608C188.391 80.5573 188.51 80.7784 188.591 81.0242C188.677 81.27 188.718 81.5321 188.716 81.8105ZM185.576 78.2345C185.577 78.114 185.552 78.012 185.503 77.9285C185.454 77.8409 185.392 77.7698 185.318 77.7152C185.247 77.6607 185.169 77.6206 185.082 77.5951C184.999 77.5695 184.924 77.5565 184.858 77.556C184.775 77.5554 184.693 77.5673 184.614 77.5916C184.535 77.616 184.458 77.6445 184.383 77.6772L184.335 79.0607C184.431 79.0614 184.55 79.054 184.691 79.0384C184.832 79.0228 184.968 78.9885 185.097 78.9354C185.23 78.8782 185.343 78.7959 185.435 78.6885C185.528 78.577 185.574 78.4256 185.576 78.2345ZM184.676 80.26C184.555 80.2592 184.439 80.2708 184.326 80.2949L184.291 81.7159C184.353 81.7288 184.414 81.7417 184.472 81.7546C184.534 81.7634 184.594 81.768 184.652 81.7684C184.74 81.769 184.835 81.7614 184.939 81.7456C185.043 81.7255 185.141 81.6888 185.233 81.6355C185.325 81.578 185.4 81.5017 185.459 81.4065C185.522 81.3114 185.554 81.1849 185.555 81.027C185.557 80.869 185.526 80.74 185.465 80.6398C185.407 80.5397 185.335 80.4623 185.248 80.4076C185.161 80.3488 185.066 80.3107 184.962 80.2933C184.859 80.2718 184.763 80.2607 184.676 80.26Z" fill="black"/>
<path d="M180.047 83.4315L176.952 83.8079L176.588 82.3964L175.167 82.3861L174.845 83.7925L171.669 83.4576L174.21 75.1731L177.677 75.0238L180.047 83.4315ZM176.378 80.4874L175.92 78.3148L175.443 80.4806L176.378 80.4874Z" fill="black"/>
<path d="M170.504 77.8917C170.502 78.2158 170.471 78.5107 170.411 78.7762C170.355 79.0376 170.266 79.278 170.143 79.4973C170.021 79.7167 169.864 79.9192 169.672 80.1048C169.479 80.2904 169.247 80.4674 168.976 80.6358L170.44 83.2895L167.631 83.8176L166.69 81.1552L165.917 81.1745L165.786 83.7667L163.106 83.7471C163.134 82.7998 163.159 81.8567 163.183 80.9177C163.21 79.9787 163.24 79.0356 163.272 78.0883C163.284 77.6105 163.295 77.1368 163.307 76.6673C163.319 76.1978 163.339 75.7242 163.367 75.2465C163.659 75.1406 163.946 75.0533 164.23 74.9847C164.513 74.9162 164.796 74.8642 165.078 74.8289C165.365 74.7894 165.654 74.7645 165.945 74.7542C166.241 74.7397 166.542 74.7336 166.849 74.7358C167.323 74.7393 167.78 74.8091 168.219 74.9453C168.663 75.0773 169.054 75.2755 169.393 75.5398C169.732 75.8041 170.002 76.1323 170.203 76.5244C170.407 76.9165 170.508 77.3723 170.504 77.8917ZM167.71 78.0708C167.712 77.8963 167.688 77.7361 167.639 77.5903C167.594 77.4445 167.525 77.3193 167.43 77.2148C167.339 77.1061 167.223 77.0221 167.083 76.9629C166.946 76.8996 166.784 76.8672 166.597 76.8658C166.514 76.8652 166.433 76.8709 166.354 76.8828C166.275 76.8905 166.198 76.9045 166.123 76.9247L166.006 79.2427L166.156 79.2438C166.335 79.2451 166.515 79.2236 166.699 79.1792C166.886 79.1349 167.053 79.0655 167.199 78.9709C167.349 78.8765 167.471 78.7547 167.563 78.6058C167.66 78.4569 167.709 78.2786 167.71 78.0708Z" fill="black"/>
<path d="M161.506 78.7974C161.504 79.1589 161.476 79.5203 161.424 79.8814C160.713 79.922 160.006 79.9916 159.303 80.0904C158.6 80.185 157.897 80.2796 157.194 80.3742C157.299 80.6742 157.466 80.9143 157.693 81.0947C157.925 81.2751 158.2 81.3664 158.52 81.3688C158.687 81.37 158.868 81.3401 159.063 81.2792C159.263 81.2184 159.461 81.1429 159.657 81.0529C159.853 80.9588 160.041 80.8583 160.22 80.7516C160.4 80.6449 160.554 80.5483 160.684 80.462L160.364 83.2897C160.201 83.4132 160.024 83.5178 159.832 83.6037C159.644 83.6896 159.448 83.7588 159.244 83.8114C159.04 83.8639 158.834 83.9019 158.626 83.9253C158.418 83.9487 158.215 83.9597 158.015 83.9582C157.604 83.9552 157.228 83.8964 156.888 83.7817C156.548 83.667 156.24 83.5089 155.963 83.3075C155.69 83.1018 155.451 82.8611 155.245 82.5854C155.039 82.3096 154.869 82.0091 154.734 81.684C154.6 81.3589 154.498 81.0153 154.43 80.6533C154.362 80.2912 154.329 79.9253 154.332 79.5554C154.335 79.169 154.373 78.7828 154.447 78.3968C154.52 78.0109 154.629 77.6397 154.773 77.2834C154.921 76.9271 155.104 76.5981 155.322 76.2963C155.545 75.9904 155.802 75.7242 156.095 75.4978C156.387 75.2714 156.717 75.0951 157.083 74.9689C157.454 74.8428 157.862 74.7814 158.307 74.7846C158.676 74.7873 159.013 74.8417 159.315 74.9478C159.622 75.0498 159.893 75.193 160.129 75.3776C160.368 75.5581 160.575 75.7736 160.747 76.0242C160.924 76.2748 161.068 76.5501 161.178 76.8501C161.292 77.146 161.375 77.4604 161.426 77.7932C161.482 78.1219 161.509 78.4567 161.506 78.7974ZM159.015 78.4551C159.016 78.3387 159.005 78.2202 158.981 78.0995C158.957 77.9747 158.916 77.8622 158.858 77.762C158.805 77.6619 158.733 77.5803 158.642 77.5173C158.551 77.4502 158.437 77.4161 158.3 77.4151C158.134 77.4139 157.986 77.4585 157.856 77.549C157.731 77.6354 157.622 77.7468 157.53 77.8832C157.437 78.0155 157.361 78.1604 157.302 78.3179C157.243 78.4754 157.198 78.6205 157.168 78.7533L159.014 78.5922L159.015 78.4551Z" fill="black"/>
<path d="M152.887 78.8209C152.882 79.4027 152.804 79.9236 152.651 80.3838C152.498 80.844 152.285 81.2517 152.012 81.6071C151.744 81.9584 151.424 82.2574 151.052 82.504C150.68 82.7506 150.274 82.9534 149.832 83.1122C149.391 83.2669 148.92 83.3798 148.421 83.451C147.926 83.5222 147.417 83.5559 146.893 83.5521C146.698 83.5506 146.507 83.5451 146.32 83.5354C146.133 83.5216 145.942 83.5036 145.746 83.4814L145.98 75.367C146.438 75.2249 146.909 75.1265 147.391 75.0718C147.878 75.0131 148.36 74.9854 148.838 74.9889C149.432 74.9932 149.978 75.0803 150.475 75.2502C150.973 75.42 151.401 75.6683 151.76 75.9951C152.12 76.3177 152.397 76.7166 152.593 77.1918C152.793 77.6629 152.891 78.2059 152.887 78.8209ZM148.631 81.1835C148.88 81.1479 149.107 81.0748 149.312 80.9641C149.52 80.8492 149.7 80.7093 149.851 80.5441C150.002 80.3749 150.117 80.1845 150.198 79.9732C150.283 79.7577 150.326 79.5295 150.328 79.2884C150.329 79.0516 150.306 78.8312 150.258 78.6272C150.209 78.419 150.129 78.2398 150.018 78.0893C149.907 77.9348 149.761 77.8132 149.578 77.7246C149.396 77.6318 149.172 77.5803 148.906 77.5701L148.631 81.1835Z" fill="black"/>
<path d="M144.583 75.2702L141.619 80.0359L141.68 83.5645L138.476 83.5412L138.577 80.0387L136.329 75.397L139.511 75.0212L140.489 77.7213L141.593 75.0364L144.583 75.2702Z" fill="black"/>
<path d="M134.972 83.6388L131.854 83.7657L131.85 80.8858L130.416 80.8753L130.309 83.6048L127.517 83.5845L127.817 74.8223L130.783 74.9811L130.564 79.4551L131.948 79.4652L131.995 74.6533L134.837 74.7488L134.972 83.6388Z" fill="black"/>
</svg>
